<svg xmlns="http://www.w3.org/2000/svg" fill="none" viewBox="0 0 392 73"><path fill="#ED352F" fill-rule="evenodd" d="M202.4 25.2c.4 1.6.4 3.5.1 5.5-.3-.5-.6-.9-1-1.3-.2-.3-.5-.6-.7-.8-1.6-1.6-3.7-2.8-6.3-3.4-1.5-.4-3.1-.7-5-.9h-.5c-.7-2.4-2-4.9-4.3-7.4 0 0 1 3.3-.7 7.2-1.4 0-2.7.1-4 .3-1.5.2-2.9.5-4.2.8-2.5.7-4.6 1.8-6.2 3.4-.4.4-.8.8-1.1 1.3-.3.5-.7.9-1 1.5-.9-4.2-.1-9.4 3.9-15.5 0 0 .5 4.6 3.8 6.4 0 0-.5-19.7 16.9-22.3 0 0-2.9 4.9-.4 9.9 2.4 5 4.6 9 4.1 13.2 0 0 1.3-6.8 7.6-8.6.1 0-2.3 4.4-1 10.7Z" clip-rule="evenodd"/><path fill="#36BD9C" d="M0 32.1h11.8L22 50.5l6.5-14.6h-6.6v-3.8h15.4v3.8h-4.8l-8.8 19.5v12.9h5.8v3.8H7v-3.8h5.8V55.7L0 33.5v-1.4Zm73.8 0v13.3c-2.2 0-4-.3-5.4-1-1.4-.7-2.5-1.5-3.4-2.5-.9-1-1.5-2-2-3.1-.4-1.1-.7-2-.9-2.8h-5.8v14.4h11.4v3.7H56.2v14.2H63c.2-.8.5-1.7.9-2.8a11.12 11.12 0 0 1 5.4-5.6c1.4-.7 3.2-1.1 5.4-1.1v13.3H39.5v-3.8h5.8V35.9h-5.8v-3.8h34.3Zm22.8-.7c1.4 0 2.6.1 3.8.3 1.2.2 2.2.4 3.1.7l6.1-1.2v13.3c-3.1-.1-5.6-1-7.5-2.7-1.9-1.7-3-4-3.3-7-.9-.2-1.9-.3-3.1-.3-.4 0-.8 0-1.1.1-.3 0-.5.1-.7.1l-.6.1c-.2.3-.3.8-.5 1.2-.1.4-.2.9-.3 1.4-.1.5-.1 1.1-.1 1.8 0 2.3.5 4 1.5 5.1 1 1.1 2.7 2 5 2.7 1.3.5 2.7 1.1 4.2 1.8 1.4.7 2.7 1.6 3.9 2.6 1.2 1 2.2 2.3 2.9 3.7.8 1.4 1.2 3 1.2 4.7 0 4.5-1.4 7.8-4.2 9.9-2.8 2.1-6.7 3.1-11.6 3.1-2.1 0-3.8-.1-5.1-.4-1.3-.2-2.2-.4-2.9-.7l-5.5 1V58.5c1.7 0 3.2.4 4.5 1 1.3.6 2.4 1.3 3.3 2.3.9 1 1.6 2.2 2.1 3.5.5 1.3.8 2.8.9 4.4.3 0 .7.1 1 .1h2.5c.5 0 1-.1 1.4-.1.5 0 1-.1 1.5-.1.1-.3.3-.7.4-1.2.1-.4.2-.9.3-1.5.1-.6.1-1.3.1-2.2 0-1.9-.5-3.4-1.4-4.5-.9-1.2-2.1-2.2-3.4-3-1.4-.8-2.9-1.6-4.5-2.3-1.6-.7-3-1.5-4.4-2.5-1.4-1-2.5-2.1-3.4-3.6-.9-1.4-1.4-3.3-1.4-5.6 0-1.7.3-3.3.8-4.7.5-1.4 1.4-2.7 2.5-3.7 1.2-1.1 2.8-1.9 4.7-2.5 2-.6 4.4-.9 7.3-.9Zm63.5.7v3.8h-5.8v32.4h5.8v3.8h-16.7v-18h-11.2v14.2h4.7v3.8h-21.5v-3.8h5.8V35.9h-5.8v-3.8h20v3.8h-3.3v14.4h11.2V35.9H140v-3.8h20.1Zm87.1 0v12.3c-2.1 0-3.8-.3-5.1-.9-1.3-.7-2.3-1.4-3-2.3a7 7 0 0 1-1.4-2.7c-.3-1-.4-1.9-.5-2.6h-3.6v32.4h5.8v3.8h-22.5v-3.8h5.8V35.9H219c0 .7-.2 1.6-.5 2.6-.2 1-.7 1.9-1.4 2.7-.7.9-1.7 1.6-3 2.3-1.3.6-3 .9-5.1.9V32.1h38.2Zm42.7 0v12.3c-2.1 0-3.8-.3-5.1-.9-1.3-.7-2.3-1.4-3-2.3a7 7 0 0 1-1.4-2.7c-.3-1-.4-1.9-.5-2.6h-3.6v32.4h5.8v3.8h-22.5v-3.8h5.8V35.9h-3.7c0 .7-.2 1.6-.5 2.6-.2 1-.7 1.9-1.4 2.7-.7.9-1.7 1.6-3 2.3-1.3.6-3 .9-5.1.9V32.1h38.2Zm26.4 0v3.8h-5.8v32.4h5.8v3.8h-22.5v-3.8h5.8V35.9h-5.8v-3.8h22.5Zm37.6 0v13.3c-2.2 0-4-.3-5.4-1-1.4-.7-2.5-1.5-3.4-2.5-.9-1-1.5-2-2-3.1-.4-1.1-.7-2-.9-2.8h-5.9v14.4h11.4v3.7h-11.4v14.2h6.8c.2-.8.5-1.7.9-2.8.4-1.1 1.1-2.1 1.9-3.1.9-1 2-1.8 3.4-2.5s3.2-1.1 5.4-1.1v13.3h-35.2v-3.8h5.8V35.9h-5.8v-3.8h34.4Zm22.9-.7c1.4 0 2.6.1 3.8.3 1.2.2 2.2.4 3.1.7l6.1-1.2v13.3c-3.1-.1-5.6-1-7.5-2.7-1.9-1.7-3-4-3.3-7-.9-.2-1.9-.3-3.1-.3-.4 0-.8 0-1.1.1-.3 0-.5.1-.7.1l-.6.1c-.2.3-.3.8-.5 1.2-.1.4-.2.9-.3 1.4-.1.5-.1 1.1-.1 1.8 0 2.3.5 4 1.5 5.1 1 1.1 2.7 2 5 2.7 1.3.5 2.7 1.1 4.2 1.8 1.4.7 2.7 1.6 3.9 2.6 1.2 1 2.2 2.3 2.9 3.7.8 1.4 1.2 3 1.2 4.7 0 4.5-1.4 7.8-4.2 9.9-2.8 2.1-6.7 3.1-11.6 3.1-2.1 0-3.8-.1-5.1-.4-1.3-.2-2.2-.4-2.9-.7l-5.5 1V58.5c1.7 0 3.2.4 4.5 1 1.3.6 2.4 1.3 3.3 2.3.9 1 1.6 2.2 2.1 3.5.5 1.3.8 2.8.9 4.4.3 0 .7.1 1 .1h2.5c.5 0 1-.1 1.4-.1.5 0 1-.1 1.5-.1.1-.3.3-.7.4-1.2.1-.4.2-.9.3-1.5.1-.6.1-1.3.1-2.2 0-1.9-.5-3.4-1.4-4.5-.9-1.2-2.1-2.2-3.4-3-1.4-.8-2.9-1.6-4.5-2.3-1.6-.7-3-1.5-4.4-2.5a10.56 10.56 0 0 1-4.8-9.2c0-1.7.3-3.3.8-4.7.5-1.4 1.4-2.7 2.5-3.7 1.2-1.1 2.8-1.9 4.7-2.5 1.9-.6 4.4-.9 7.3-.9ZM204.3 42.8c-.6-2.2-1.5-4-2.7-5.4-.2-.3-.5-.6-.7-.8-1.6-1.6-3.7-2.8-6.3-3.4-1.5-.4-3.1-.7-5-.9-1.3-.1-2.8-.2-4.3-.2-1.9 0-3.6.1-5.2.3-1.5.2-2.9.5-4.2.8-2.5.7-4.6 1.8-6.2 3.4-.4.4-.8.8-1.1 1.3-1 1.3-1.8 3-2.3 4.9-.7 2.5-1 5.6-1 9.3 0 3.7.3 6.8 1 9.4.7 2.5 1.8 4.6 3.4 6.2 1.6 1.5 3.7 2.7 6.2 3.4 2.5.7 5.6 1 9.4 1 3.7 0 6.8-.3 9.3-1 2.6-.8 4.7-1.9 6.3-3.4 1.6-1.6 2.8-3.7 3.4-6.2.7-2.6 1-5.7 1-9.4s-.3-6.8-1-9.3ZM191 58.3c-.2 1.9-.4 3.5-.5 4.9-.2 1.7-.5 3.2-.8 4.5a14.24 14.24 0 0 1-4.4.6c-1.4 0-2.5-.1-3.3-.3-.5-.1-.8-.1-1.1-.3-.3-1.3-.5-2.8-.8-4.5-.2-1.4-.4-3-.6-4.9-.1-1.9-.2-4-.2-6.3v-3.4c0-1 .1-1.9.1-2.8.2-1.9.4-3.5.6-5 .2-1.6.5-3.1.8-4.5.3 0 .7-.1 1.1-.3.4-.1.9-.1 1.4-.2.5 0 1.2-.1 1.9-.1.6 0 1.2 0 1.7.1.6.1 1.1.1 1.5.2.2 0 .4.1.6.2.2 0 .4.1.6.1.2.7.3 1.4.4 2.2l.3 2.3c.2 1.4.4 3.1.5 5 0 .6.1 1.1.1 1.7v1c.1 1.1.1 2.3.1 3.5.2 2.3.2 4.4 0 6.3Z"/></svg>