<svg xmlns="http://www.w3.org/2000/svg" fill="none" viewBox="0 0 139 27"><path fill="#ED352F" fill-rule="evenodd" d="M71.74 9.43c.14.57.14 1.24.04 1.95-.1-.18-.21-.32-.36-.46a4.55 4.55 0 0 0-2.48-1.49c-.53-.14-1.1-.25-1.77-.32h-.18a6.54 6.54 0 0 0-1.52-2.62s.35 1.17-.25 2.55c-.5 0-.96.04-1.42.1-.53.08-1.03.18-1.49.29-.88.25-1.63.64-2.2 1.2-.14.15-.28.29-.38.47-.11.17-.25.32-.36.53-.32-1.5-.03-3.33 1.38-5.5 0 0 .18 1.63 1.35 2.27 0 0-.18-6.98 6-7.9 0 0-1.04 1.73-.15 3.5.85 1.78 1.63 3.2 1.45 4.69 0 0 .46-2.41 2.7-3.05.03 0-.82 1.56-.36 3.79Z" clip-rule="evenodd"/><path fill="#36BD9C" d="M0 11.88h4.18L7.8 18.4l2.3-5.18H7.76v-1.34h5.46v1.34h-1.7L8.4 20.13v4.58h2.06v1.34H2.48v-1.34h2.06v-4.47L0 12.37v-.5Zm26.16 0v4.71a4.3 4.3 0 0 1-1.91-.35 3.94 3.94 0 0 1-1.92-1.99c-.14-.39-.25-.7-.32-1h-2.05v5.11H24v1.31h-4.08v5.04h2.41c.07-.29.18-.6.32-1a3.94 3.94 0 0 1 3.83-2.37v4.71H14v-1.34h2.06V13.22H14v-1.34h12.16Zm8.08-.25a7.98 7.98 0 0 1 2.45.35l2.16-.42v4.71a4.04 4.04 0 0 1-2.66-.96 3.66 3.66 0 0 1-1.17-2.48c-.32-.07-.67-.1-1.1-.1-.14 0-.28 0-.39.03-.1 0-.18.04-.25.04l-.2.03c-.08.1-.12.29-.19.43l-.1.5c-.04.17-.04.38-.04.63 0 .82.18 1.42.53 1.81.36.39.96.7 1.78.96.46.17.95.39 1.48.64.5.24.96.56 1.39.92.42.35.78.81 1.03 1.3.28.5.42 1.07.42 1.67 0 1.6-.5 2.77-1.49 3.51-1 .75-2.37 1.1-4.11 1.1a8.47 8.47 0 0 1-2.84-.39l-1.95.36v-5.04c.6 0 1.14.15 1.6.36a3.47 3.47 0 0 1 1.91 2.05c.18.46.29 1 .32 1.56.1 0 .25.04.36.04h.89c.17 0 .35-.04.49-.04.18 0 .35-.03.53-.03a6.98 6.98 0 0 0 .25-.96c.04-.21.04-.46.04-.78 0-.67-.18-1.2-.5-1.6a4.34 4.34 0 0 0-1.2-1.06c-.5-.28-1.03-.56-1.6-.81a8.44 8.44 0 0 1-1.56-.89c-.5-.35-.89-.74-1.2-1.27-.33-.5-.5-1.17-.5-1.99 0-.6.1-1.17.28-1.67.18-.5.5-.95.89-1.3.42-.4.99-.68 1.66-.9.71-.2 1.56-.31 2.6-.31Zm22.5.25v1.34H54.7v11.49h2.06v1.34h-5.92v-6.38h-3.97v5.04h1.67v1.34H40.9v-1.34h2.06V13.22H40.9v-1.34H48v1.34h-1.18v5.1h3.97v-5.1h-1.17v-1.34h7.13Zm30.88 0v4.36c-.74 0-1.34-.11-1.8-.32-.47-.25-.82-.5-1.07-.82a2.48 2.48 0 0 1-.5-.96c-.1-.35-.14-.67-.17-.92H82.8v11.49h2.06v1.34h-7.98v-1.34h2.06V13.22h-1.31c0 .25-.07.57-.18.92-.07.36-.25.68-.5.96-.25.32-.6.57-1.06.82-.46.2-1.06.32-1.8.32v-4.36h13.53Zm15.14 0v4.36c-.75 0-1.35-.11-1.81-.32-.46-.25-.81-.5-1.06-.82a2.48 2.48 0 0 1-.5-.96c-.1-.35-.14-.67-.18-.92h-1.27v11.49h2.05v1.34h-7.97v-1.34h2.05V13.22h-1.3c0 .25-.08.57-.19.92-.07.36-.24.68-.5.96-.24.32-.6.57-1.05.82-.47.2-1.07.32-1.81.32v-4.36h13.54Zm9.36 0v1.34h-2.06v11.49h2.06v1.34h-7.98v-1.34h2.06V13.22h-2.06v-1.34h7.98Zm13.32 0v4.71a4.3 4.3 0 0 1-1.91-.35 3.94 3.94 0 0 1-1.92-1.99c-.14-.39-.24-.7-.31-1h-2.1v5.11h4.05v1.31h-4.05v5.04h2.41c.08-.29.18-.6.32-1a4 4 0 0 1 .68-1.1 3.93 3.93 0 0 1 3.12-1.27v4.71h-12.48v-1.34h2.06V13.22h-2.06v-1.34h12.2Zm8.12-.25a7.97 7.97 0 0 1 2.45.35l2.16-.42v4.71a4.04 4.04 0 0 1-2.66-.96 3.66 3.66 0 0 1-1.17-2.48c-.32-.07-.67-.1-1.1-.1-.14 0-.28 0-.39.03-.1 0-.18.04-.25.04l-.2.03c-.08.1-.12.29-.19.43l-.1.5c-.04.17-.04.38-.04.63 0 .82.18 1.42.53 1.81.36.39.96.7 1.78.96.46.17.95.39 1.48.64.5.24.96.56 1.39.92.42.35.78.81 1.03 1.3.28.5.42 1.07.42 1.67 0 1.6-.5 2.77-1.49 3.51-1 .75-2.37 1.1-4.11 1.1a8.47 8.47 0 0 1-2.84-.39l-1.95.36v-5.04c.6 0 1.14.15 1.6.36a3.47 3.47 0 0 1 1.91 2.05c.18.46.29 1 .32 1.56.1 0 .25.04.36.04h.89c.17 0 .35-.04.49-.04.18 0 .35-.03.53-.03a7 7 0 0 0 .25-.96c.03-.21.03-.46.03-.78 0-.67-.17-1.2-.5-1.6a4.34 4.34 0 0 0-1.2-1.06c-.5-.28-1.03-.56-1.6-.81a8.43 8.43 0 0 1-1.55-.89 3.74 3.74 0 0 1-1.7-3.26c0-.6.1-1.17.28-1.67.18-.5.5-.95.89-1.3.42-.4.99-.68 1.66-.9a8.87 8.87 0 0 1 2.59-.31ZM72.42 15.67a4.86 4.86 0 0 0-.96-1.91c-.07-.11-.18-.22-.25-.29-.57-.57-1.31-1-2.23-1.2a11.38 11.38 0 0 0-3.3-.4c-.67 0-1.28.04-1.84.11-.53.07-1.03.18-1.5.29-.88.25-1.62.63-2.19 1.2a4.93 4.93 0 0 0-1.2 2.2 12.5 12.5 0 0 0-.36 3.3c0 1.3.1 2.4.36 3.33a4.9 4.9 0 0 0 1.2 2.2c.57.53 1.31.95 2.2 1.2.89.25 1.98.36 3.33.36 1.31 0 2.41-.11 3.3-.36a5.6 5.6 0 0 0 2.23-1.2 4.6 4.6 0 0 0 1.2-2.2c.25-.92.36-2.02.36-3.33 0-1.32-.1-2.41-.35-3.3Zm-4.72 5.5c-.07.67-.14 1.23-.18 1.73-.07.6-.17 1.13-.28 1.6l-.39.1c-.28.07-.67.1-1.17.1-.5 0-.89-.03-1.17-.1-.18-.03-.28-.03-.39-.1-.1-.47-.18-1-.28-1.6-.07-.5-.14-1.06-.21-1.74-.04-.67-.08-1.41-.08-2.23v-1.2c0-.36.04-.68.04-1l.21-1.77c.07-.57.18-1.1.29-1.6.1 0 .24-.03.39-.1.14-.04.31-.04.5-.07.17 0 .42-.04.67-.04.2 0 .42 0 .6.04.21.03.39.03.53.07.07 0 .14.03.21.07.07 0 .14.04.22.04.07.24.1.5.14.78l.1.81c.07.5.15 1.1.18 1.77 0 .22.04.4.04.6v.36c.03.39.03.82.03 1.24.07.82.07 1.56 0 2.23Z"/></svg>