<svg xmlns="http://www.w3.org/2000/svg" fill="none" viewBox="0 0 289 399"><path fill="#00C293" d="M4.23 37.58H23.9l16.84 30.56 10.8-24.3H40.52v-6.26h25.6v6.26h-8l-14.58 32.4v21.5h9.61V104H15.8v-6.26h9.6V76.68L4.24 39.85v-2.27Zm168.98 0v22.03c-3.6 0-6.58-.57-8.96-1.73a19.37 19.37 0 0 1-5.72-4.2 18.25 18.25 0 0 1-3.24-5.2 30.98 30.98 0 0 1-1.52-4.64h-9.72v23.98h18.9v6.26h-18.9v23.66h11.34c.3-1.3.8-2.85 1.52-4.65a17.66 17.66 0 0 1 8.96-9.4c2.38-1.22 5.36-1.83 8.96-1.83V104H116.3v-6.26h9.61v-53.9h-9.61v-6.26h56.91Zm84.48-1.19c2.3 0 4.4.18 6.26.54 1.95.29 3.64.69 5.08 1.19l10.15-2.05V58.1c-5.18-.14-9.36-1.62-12.53-4.43-3.16-2.8-5-6.66-5.5-11.55a26.17 26.17 0 0 0-6.92-.33l-1.18.22-1.08.21a11.2 11.2 0 0 0-.76 2.06c-.14.64-.29 1.44-.43 2.37-.15.87-.22 1.84-.22 2.92 0 3.81.83 6.62 2.49 8.42 1.72 1.8 4.5 3.31 8.31 4.54 2.23.79 4.54 1.8 6.91 3.02a28.26 28.26 0 0 1 6.48 4.32 20.23 20.23 0 0 1 4.86 6.16 15.8 15.8 0 0 1 1.95 7.88c0 7.49-2.3 13-6.91 16.53-4.61 3.45-11.06 5.18-19.34 5.18a43.4 43.4 0 0 1-8.42-.65c-2.09-.36-3.7-.72-4.86-1.08l-9.07 1.73v-24.2c2.8.08 5.29.62 7.45 1.63 2.16.93 4 2.23 5.5 3.89a18.4 18.4 0 0 1 3.57 5.83 23.78 23.78 0 0 1 1.51 7.34c.58.07 1.12.11 1.62.11h4.11a332.09 332.09 0 0 1 4.86-.43c.21-.5.43-1.15.65-1.95a26.5 26.5 0 0 0 .65-6.16c0-3.16-.76-5.68-2.27-7.55a20.24 20.24 0 0 0-5.73-4.97 65.5 65.5 0 0 0-7.45-3.78 45.68 45.68 0 0 1-7.34-4.1 20.46 20.46 0 0 1-5.73-5.94c-1.51-2.38-2.27-5.48-2.27-9.3 0-2.8.44-5.4 1.3-7.77a14.99 14.99 0 0 1 4.21-6.15c2.02-1.8 4.65-3.2 7.89-4.22 3.3-1 7.38-1.5 12.2-1.5ZM78.99 170.58v6.26h-9.6v53.9h9.6V237H51.25v-29.92H32.67v23.66h7.88V237H4.91v-6.26h9.61v-53.9H4.91v-6.26h33.16v6.26h-5.4v23.98h18.57v-23.98h-5.4v-6.26H79Zm204 0v20.41c-3.53 0-6.37-.5-8.53-1.51a16.15 16.15 0 0 1-4.97-3.78 12.53 12.53 0 0 1-2.38-4.54c-.43-1.65-.68-3.1-.75-4.32h-6.05v53.9h9.61V237h-37.37v-6.26h9.61v-53.9h-6.15a22.78 22.78 0 0 1-.76 4.32 10.64 10.64 0 0 1-2.37 4.54 14.58 14.58 0 0 1-4.97 3.78c-2.16 1-4.97 1.51-8.43 1.51v-20.41h63.5Zm-215.63 133v20.41c-3.53 0-6.38-.5-8.54-1.51a16.15 16.15 0 0 1-4.96-3.78 12.53 12.53 0 0 1-2.38-4.54c-.43-1.65-.68-3.1-.76-4.32h-6.04v53.9h9.6V370H16.93v-6.26h9.61v-53.9h-6.15a22.78 22.78 0 0 1-.76 4.32 10.64 10.64 0 0 1-2.38 4.54 14.58 14.58 0 0 1-4.96 3.78c-2.16 1-4.97 1.51-8.43 1.51v-20.41h63.5Zm60.06 0v6.26h-9.6v53.9h9.6V370H90.06v-6.26h9.6v-53.9h-9.6v-6.26h37.36Zm78.57 0v22.03c-3.6 0-6.59-.57-8.96-1.73a19.37 19.37 0 0 1-5.72-4.2 18.25 18.25 0 0 1-3.25-5.2 30.98 30.98 0 0 1-1.5-4.64h-9.73v23.98h18.9v6.26h-18.9v23.66h11.34c.3-1.3.8-2.85 1.52-4.65a17.66 17.66 0 0 1 8.96-9.4c2.38-1.22 5.36-1.83 8.96-1.83V370h-58.53v-6.26h9.6v-53.9h-9.6v-6.26h56.91Zm54.24-1.19c2.3 0 4.4.18 6.26.54 1.95.29 3.64.69 5.08 1.19l10.15-2.05v22.03c-5.18-.14-9.36-1.62-12.53-4.43-3.16-2.8-5-6.66-5.5-11.55a26.17 26.17 0 0 0-6.92-.33l-1.18.22-1.08.21a11.2 11.2 0 0 0-.76 2.06c-.14.64-.29 1.44-.43 2.37-.15.87-.22 1.84-.22 2.92 0 3.81.83 6.62 2.49 8.42 1.72 1.8 4.5 3.31 8.31 4.54 2.23.79 4.54 1.8 6.91 3.02a28.26 28.26 0 0 1 6.48 4.32 20.23 20.23 0 0 1 4.86 6.16 15.8 15.8 0 0 1 1.95 7.88c0 7.49-2.3 13-6.91 16.53-4.61 3.45-11.06 5.18-19.34 5.18a43.4 43.4 0 0 1-8.42-.65c-2.09-.36-3.7-.72-4.86-1.08l-9.07 1.73v-24.2c2.8.08 5.29.62 7.45 1.63 2.16.93 4 2.23 5.5 3.89a18.4 18.4 0 0 1 3.57 5.83 23.78 23.78 0 0 1 1.51 7.34c.58.07 1.12.11 1.62.11h4.11a332.09 332.09 0 0 1 4.86-.43c.21-.5.43-1.15.65-1.95a26.5 26.5 0 0 0 .65-6.16c0-3.16-.76-5.68-2.27-7.55a20.24 20.24 0 0 0-5.73-4.97 65.5 65.5 0 0 0-7.45-3.78 45.68 45.68 0 0 1-7.34-4.1 20.46 20.46 0 0 1-5.73-5.94c-1.51-2.38-2.27-5.48-2.27-9.3 0-2.8.44-5.4 1.3-7.77a14.99 14.99 0 0 1 4.21-6.15c2.02-1.8 4.65-3.2 7.89-4.22 3.3-1 7.38-1.5 12.2-1.5Z"/><path fill="#ED352F" fill-rule="evenodd" d="M174.48 165.31c.6 2.24.6 4.9.15 7.7a9.12 9.12 0 0 0-1.52-1.81c-.3-.42-.76-.84-1.06-1.12a20.01 20.01 0 0 0-9.56-4.77c-2.28-.56-4.7-.98-7.6-1.26h-.75a25.45 25.45 0 0 0-6.53-10.37s1.52 4.63-1.06 10.1c-2.13 0-4.1.13-6.07.41-2.28.28-4.4.7-6.38 1.12-3.8.98-6.98 2.52-9.4 4.77-.61.56-1.22 1.12-1.68 1.82-.45.7-1.06 1.26-1.51 2.1-1.37-5.88-.16-13.17 5.92-21.72 0 0 .75 6.45 5.76 8.97 0 0-.76-27.6 25.65-31.25 0 0-4.4 6.87-.6 13.87 3.64 7 6.98 12.61 6.22 18.5 0 0 1.97-9.53 11.53-12.05.16 0-3.49 6.16-1.51 15Z" clip-rule="evenodd"/><path fill="#00C293" d="M180.38 188.39a22.28 22.28 0 0 0-4.4-8.78 9.27 9.27 0 0 0-1.13-1.3 20.86 20.86 0 0 0-10.24-5.52 52.18 52.18 0 0 0-8.12-1.47 91.61 91.61 0 0 0-6.99-.32c-3.09 0-5.85.16-8.45.49-2.44.32-4.71.81-6.83 1.3-4.06 1.14-7.47 2.92-10.07 5.52-.65.65-1.3 1.3-1.79 2.12a22.61 22.61 0 0 0-3.73 7.96c-1.14 4.06-1.63 9.1-1.63 15.11s.49 11.05 1.63 15.28c1.13 4.06 2.92 7.47 5.52 10.07a24.19 24.19 0 0 0 10.07 5.53c4.07 1.13 9.1 1.62 15.28 1.62 6.01 0 11.05-.49 15.11-1.63 4.23-1.3 7.64-3.08 10.24-5.52 2.6-2.6 4.55-6.01 5.53-10.07 1.13-4.23 1.62-9.27 1.62-15.28s-.49-11.05-1.63-15.11Zm-21.62 25.19c-.32 3.08-.65 5.68-.81 7.96-.32 2.76-.81 5.2-1.3 7.31-.49.16-1.14.33-1.79.49-1.3.32-3.09.48-5.36.48-2.28 0-4.06-.16-5.36-.48-.81-.16-1.3-.16-1.79-.49-.49-2.11-.81-4.55-1.3-7.31-.33-2.28-.65-4.88-.98-7.97-.16-3.08-.32-6.5-.32-10.23v-5.53c0-1.62.16-3.09.16-4.55.33-3.08.65-5.69.98-8.12.32-2.6.81-5.04 1.3-7.31.49 0 1.13-.17 1.78-.5.66-.16 1.47-.16 2.28-.32.81 0 1.95-.16 3.09-.16.97 0 1.95 0 2.76.16.97.17 1.79.17 2.44.33.32 0 .65.16.97.32.33 0 .65.16.98.16.32 1.14.48 2.28.65 3.58.16 1.14.32 2.44.49 3.74.32 2.27.65 5.04.8 8.12 0 .98.17 1.79.17 2.77v1.62c.16 1.79.16 3.74.16 5.69.33 3.73.33 7.15 0 10.23Z"/></svg>