<svg xmlns="http://www.w3.org/2000/svg" viewBox="0 0 360 317.001" preserveAspectRatio="none"><path fill="#9FB7DE" d="M360 317H0V0h360v317ZM180 1C132.187 1 87.236 6.68 53.428 16.994 36.989 22.01 24.082 27.85 15.067 34.353 5.733 41.085 1 48.237 1 55.61c0 4.561 1.847 9.09 5.49 13.474 3.537 4.252 8.774 8.372 15.568 12.247-6.793 3.875-12.031 8-15.568 12.247C2.847 97.958 1 102.491 1 107.051s1.847 9.1 5.491 13.477c3.537 4.252 8.776 8.373 15.572 12.247-6.794 3.875-12.033 8-15.572 12.249C2.847 149.4 1 153.938 1 158.5s1.847 9.094 5.491 13.474c3.537 4.252 8.774 8.373 15.568 12.249-6.793 3.874-12.03 7.994-15.568 12.246C2.847 200.849 1 205.382 1 209.943s1.847 9.1 5.491 13.475c3.538 4.253 8.777 8.374 15.572 12.247-6.795 3.875-12.034 8-15.572 12.249C2.847 252.294 1 256.828 1 261.39c0 7.372 4.733 14.524 14.067 21.257 9.015 6.5 21.922 12.343 38.361 17.358 33.809 10.315 78.76 16 126.572 16s92.764-5.681 126.572-16c16.439-5.015 29.346-10.856 38.361-17.358C354.267 275.914 359 268.762 359 261.39c0-4.562-1.847-9.1-5.49-13.476-3.537-4.252-8.775-8.373-15.569-12.249 6.793-3.873 12.031-7.993 15.569-12.247 3.643-4.38 5.49-8.913 5.49-13.475s-1.847-9.094-5.489-13.474c-3.537-4.252-8.774-8.372-15.568-12.246 6.793-3.875 12.031-8 15.568-12.249 3.643-4.38 5.489-8.913 5.489-13.474s-1.847-9.1-5.49-13.475c-3.537-4.253-8.776-8.374-15.571-12.249 6.794-3.874 12.033-7.994 15.571-12.247 3.643-4.38 5.49-8.914 5.49-13.477s-1.847-9.094-5.489-13.474c-3.537-4.252-8.774-8.372-15.568-12.247 6.793-3.874 12.03-7.994 15.568-12.247C357.153 64.7 359 60.171 359 55.61c0-7.373-4.733-14.525-14.067-21.257-9.016-6.5-21.922-12.343-38.361-17.358C272.764 6.68 227.813 1 180 1Z"/></svg>