<svg xmlns="http://www.w3.org/2000/svg" viewBox="0 0 639 582" preserveAspectRatio="none"><path fill="#FFF705" d="M639 582H0V0h639v582ZM319.5 1C234.42 1 154.44 11.46 94.29 30.45c-29.26 9.23-52.22 19.99-68.26 31.96C9.43 74.81 1 87.98 1 101.55c0 8.4 3.29 16.75 9.77 24.81 6.3 7.83 15.61 15.42 27.7 22.55-12.09 7.14-21.4 14.72-27.7 22.55C4.29 179.53 1 187.87 1 196.27s3.29 16.75 9.77 24.81c6.3 7.83 15.62 15.42 27.7 22.55-12.08 7.14-21.4 14.73-27.7 22.56C4.3 274.25 1 282.6 1 291s3.29 16.75 9.77 24.81c6.3 7.83 15.61 15.42 27.7 22.55-12.09 7.14-21.4 14.72-27.7 22.55C4.29 368.98 1 377.32 1 385.72s3.29 16.75 9.77 24.81c6.3 7.83 15.62 15.42 27.7 22.55-12.08 7.14-21.4 14.73-27.7 22.56C4.29 463.7 1 472.03 1 480.44c0 13.58 8.42 26.75 25.03 39.15 16.04 11.97 39 22.72 68.26 31.96 60.15 19 140.13 29.45 225.21 29.45s165.06-10.46 225.21-29.45c29.25-9.24 52.22-19.99 68.26-31.96 16.6-12.4 25.03-25.57 25.03-39.14 0-8.4-3.29-16.75-9.77-24.81-6.3-7.83-15.61-15.42-27.7-22.56 12.09-7.13 21.41-14.72 27.7-22.55 6.48-8.06 9.77-16.4 9.77-24.8s-3.29-16.75-9.77-24.82c-6.3-7.83-15.61-15.41-27.7-22.55 12.09-7.13 21.41-14.72 27.7-22.55 6.48-8.06 9.77-16.41 9.77-24.81s-3.29-16.75-9.77-24.81c-6.3-7.83-15.61-15.42-27.7-22.55 12.08-7.14 21.4-14.72 27.7-22.56 6.48-8.06 9.77-16.41 9.77-24.81s-3.29-16.75-9.77-24.8c-6.3-7.84-15.61-15.42-27.7-22.56 12.09-7.13 21.4-14.72 27.7-22.55 6.48-8.06 9.77-16.41 9.77-24.8 0-13.58-8.42-26.75-25.03-39.15-16.04-11.97-39-22.73-68.26-31.96C484.56 11.45 404.58 1 319.5 1Z"/></svg>