<svg xmlns="http://www.w3.org/2000/svg" viewBox="0 0 639 582" preserveAspectRatio="none"><path fill="#9FB7DE" d="M639 582H0V0h639v582ZM319.5 1c-85 0-165 10.5-225.2 29.4C65 39.8 42 50.5 26 62.5 9.4 74.8 1 88 1 101.6c0 8.4 3.3 16.7 9.8 24.8 6.3 7.8 15.6 15.4 27.7 22.5-12.1 7.1-21.4 14.7-27.7 22.6-6.5 8-9.8 16.4-9.8 24.8S4.3 213 10.8 221c6.3 7.8 15.6 15.4 27.7 22.5-12.1 7.2-21.4 14.8-27.7 22.6-6.5 8-9.8 16.4-9.8 24.8s3.3 16.7 9.8 24.8c6.3 7.8 15.6 15.4 27.7 22.6-12.1 7.1-21.4 14.7-27.7 22.5-6.5 8-9.8 16.4-9.8 24.8s3.3 16.8 9.8 24.8c6.3 7.9 15.6 15.4 27.7 22.6-12.1 7.1-21.4 14.7-27.7 22.5C4.3 463.7 1 472 1 480.4c0 13.6 8.4 26.8 25 39.2 16 12 39 22.7 68.3 32 60.1 19 140.1 29.4 225.2 29.4s165-10.5 225.2-29.5c29.3-9.2 52.2-20 68.3-32 16.6-12.3 25-25.5 25-39 0-8.5-3.3-16.8-9.8-24.9a101.4 101.4 0 0 0-27.7-22.5c12.1-7.2 21.4-14.7 27.7-22.6 6.5-8 9.8-16.4 9.8-24.8s-3.3-16.7-9.8-24.8a101.4 101.4 0 0 0-27.7-22.5c12.1-7.2 21.4-14.8 27.7-22.6 6.5-8 9.8-16.4 9.8-24.8s-3.3-16.7-9.8-24.8a101.4 101.4 0 0 0-27.7-22.6c12.1-7.1 21.4-14.7 27.7-22.5 6.5-8 9.8-16.4 9.8-24.8s-3.3-16.8-9.8-24.8a101.4 101.4 0 0 0-27.7-22.6c12.1-7.1 21.4-14.7 27.7-22.5 6.5-8.1 9.8-16.5 9.8-24.8 0-13.6-8.4-26.8-25-39.2-16-12-39-22.7-68.3-32C484.6 11.4 404.6 1 319.5 1Z"/></svg>