<svg xmlns="http://www.w3.org/2000/svg" fill="none" viewBox="0 0 96 172"><path fill="#ED352F" fill-rule="evenodd" d="M88.62 60.2c.95 3.81.95 8.35.24 13.13a15.33 15.33 0 0 0-2.38-3.1 13.62 13.62 0 0 0-1.66-1.92 30.42 30.42 0 0 0-14.95-8.12A75.75 75.75 0 0 0 58 58.04h-1.18c-1.66-5.73-4.75-11.7-10.2-17.67 0 0 2.37 7.88-1.67 17.2-3.32 0-6.4.23-9.5.71-3.55.48-6.87 1.2-9.96 1.91-5.93 1.67-10.92 4.3-14.71 8.12-.95.96-1.9 1.91-2.62 3.1-.7 1.2-1.66 2.16-2.37 3.59-2.13-10.03-.24-22.45 9.26-37.02 0 0 1.18 10.99 9.02 15.28 0 0-1.2-47.05 40.1-53.26 0 0-6.88 11.7-.94 23.65 5.7 11.94 10.91 21.5 9.73 31.53 0 0 3.08-16.25 18.03-20.55.24 0-5.46 10.51-2.37 25.56Z" clip-rule="evenodd"/><path fill="#36BD9C" d="M93.6 102.41c-1.44-5.22-3.6-9.5-6.48-12.82-.48-.72-1.2-1.43-1.68-1.9a30.91 30.91 0 0 0-15.12-8.08 77.77 77.77 0 0 0-12-2.14C55.2 77.24 51.6 77 48 77a101 101 0 0 0-12.48.71c-3.6.48-6.96 1.19-10.08 1.9-6 1.67-11.04 4.28-14.88 8.08a16.4 16.4 0 0 0-2.64 3.09A32.88 32.88 0 0 0 2.4 102.4C.72 108.35 0 115.71 0 124.5s.72 16.15 2.4 22.32c1.68 5.94 4.32 10.93 8.16 14.73a35.82 35.82 0 0 0 14.88 8.07c6 1.67 13.44 2.38 22.56 2.38 8.88 0 16.32-.71 22.32-2.38 6.24-1.9 11.28-4.5 15.12-8.07a30.7 30.7 0 0 0 8.16-14.73c1.68-6.17 2.4-13.53 2.4-22.32 0-8.79-.72-16.15-2.4-22.09Zm-31.92 36.81c-.48 4.52-.96 8.32-1.2 11.64-.48 4.04-1.2 7.6-1.92 10.69-.72.24-1.68.47-2.64.71-1.92.48-4.56.72-7.92.72-3.36 0-6-.24-7.92-.72-1.2-.23-1.92-.23-2.64-.71-.72-3.09-1.2-6.65-1.92-10.69a313 313 0 0 1-1.44-11.64c-.24-4.5-.48-9.5-.48-14.96v-8.07c0-2.38.24-4.52.24-6.65.48-4.52.96-8.32 1.44-11.88.48-3.8 1.2-7.36 1.92-10.69a6.3 6.3 0 0 0 2.64-.7c.96-.24 2.16-.24 3.36-.48 1.2 0 2.88-.24 4.56-.24 1.44 0 2.88 0 4.08.24 1.44.23 2.64.23 3.6.47.48 0 .96.24 1.44.48.48 0 .96.23 1.44.23.48 1.67.72 3.33.96 5.23.24 1.66.48 3.56.72 5.46.48 3.33.96 7.37 1.2 11.88 0 1.42.24 2.61.24 4.03v2.38c.24 2.61.24 5.46.24 8.31.48 5.46.48 10.45 0 14.96Z"/></svg>