<?xml version="1.0" standalone="no"?>
<!DOCTYPE svg PUBLIC "-//W3C//DTD SVG 20010904//EN"
 "http://www.w3.org/TR/2001/REC-SVG-20010904/DTD/svg10.dtd">
<svg version="1.0" xmlns="http://www.w3.org/2000/svg"
 width="1376.000000pt" height="1376.000000pt" viewBox="0 0 1376.000000 1376.000000"
 preserveAspectRatio="xMidYMid meet">
<metadata>
Created by potrace 1.14, written by Peter Selinger 2001-2017
</metadata>
<g transform="translate(0.000000,1376.000000) scale(0.100000,-0.100000)"
fill="#000000" stroke="none">
<path d="M8128 13755 c-1 -2 -21 -6 -43 -9 -36 -6 -208 -41 -245 -50 -8 -2
-61 -15 -117 -29 -57 -14 -108 -29 -114 -33 -7 -4 -22 -8 -33 -10 -22 -3 -180
-57 -231 -79 -16 -7 -85 -36 -152 -65 -111 -47 -206 -95 -348 -174 -80 -45
-241 -154 -325 -219 -82 -63 -170 -137 -192 -159 -15 -16 -29 -28 -32 -28 -5
0 -149 -143 -216 -216 -59 -65 -92 -103 -171 -204 -28 -36 -59 -75 -70 -88
-10 -12 -19 -24 -19 -26 0 -3 -31 -51 -70 -108 -38 -57 -70 -109 -70 -115 0
-7 -4 -13 -9 -13 -5 0 -16 -15 -25 -32 -10 -18 -33 -60 -51 -93 -19 -33 -49
-89 -67 -125 -18 -36 -36 -66 -40 -68 -5 -2 -8 -9 -8 -16 0 -7 -9 -30 -19 -52
-34 -70 -81 -174 -81 -179 0 -3 -9 -24 -19 -48 -18 -41 -33 -77 -36 -87 0 -3
-11 -32 -24 -65 -13 -33 -24 -64 -26 -70 -1 -5 -5 -19 -9 -30 -5 -11 -12 -31
-16 -45 -4 -14 -11 -34 -16 -45 -4 -11 -8 -26 -10 -33 -3 -18 -34 -122 -45
-152 -11 -33 -58 -215 -65 -253 -2 -17 -6 -33 -8 -36 -2 -3 -7 -23 -10 -43 -3
-21 -10 -57 -15 -80 -6 -24 -13 -59 -16 -78 -3 -19 -8 -42 -10 -50 -2 -8 -7
-33 -10 -55 -2 -22 -7 -49 -9 -61 -2 -12 -8 -45 -11 -75 -4 -30 -9 -65 -12
-79 -5 -35 -11 -84 -18 -160 -3 -36 -8 -81 -10 -100 -7 -53 -17 -243 -19 -332
-1 -82 -4 -85 -46 -60 -102 62 -207 152 -275 237 -16 20 -40 50 -52 65 -13 15
-23 32 -23 38 0 5 -6 12 -12 15 -7 3 -22 22 -33 43 -11 22 -23 41 -26 44 -8 6
-113 221 -115 235 -1 6 -11 31 -21 55 -18 41 -30 77 -33 105 -1 6 -5 15 -10
20 -6 9 -28 88 -33 126 -2 8 -5 19 -8 24 -4 6 -12 47 -19 93 -8 45 -16 82 -19
82 -5 0 -126 -191 -166 -260 -102 -180 -237 -443 -283 -551 -13 -30 -33 -76
-45 -103 -12 -27 -21 -51 -19 -53 1 -2 -5 -17 -13 -33 -38 -73 -164 -470 -181
-567 -3 -15 -9 -41 -14 -58 -5 -16 -11 -48 -15 -70 -3 -22 -7 -51 -10 -65 -10
-46 -13 -68 -20 -112 -6 -42 -8 -62 -20 -163 -3 -27 -7 -84 -9 -127 -2 -42 -7
-81 -10 -87 -4 -6 -3 -11 1 -11 10 0 10 -41 0 -56 -3 -5 -2 -16 3 -24 4 -7 4
-23 0 -36 -5 -12 -6 -25 -3 -28 4 -3 7 -41 8 -84 3 -83 13 -218 20 -242 2 -8
7 -35 10 -60 3 -25 9 -58 12 -75 3 -16 6 -39 8 -50 1 -11 4 -20 7 -20 3 0 30
36 60 80 30 44 88 129 129 189 73 109 267 317 354 381 22 17 45 35 50 42 6 6
48 38 95 70 74 51 108 73 205 130 27 15 207 104 275 135 117 54 397 143 540
173 14 2 45 9 70 15 25 5 56 12 70 14 25 6 50 11 100 22 14 3 34 7 45 8 32 6
88 16 115 21 56 11 74 14 117 20 24 2 48 7 51 9 4 2 36 7 72 10 36 4 74 9 85
12 25 5 86 13 145 19 25 2 72 6 105 10 78 7 258 16 362 19 45 1 86 6 91 11 7
9 47 110 72 185 32 93 64 219 76 296 3 20 8 46 10 58 15 70 30 273 28 370 -1
98 -13 257 -21 290 -2 12 -7 37 -9 56 -3 19 -9 47 -14 62 -5 17 -5 30 1 33 5
4 9 3 9 -2 0 -4 15 -24 33 -45 39 -42 86 -98 190 -228 7 -8 37 -51 67 -95 30
-44 57 -82 60 -85 6 -5 37 -52 55 -82 168 -278 274 -502 351 -738 20 -63 39
-117 40 -119 2 -2 38 -5 81 -7 100 -5 171 -13 308 -35 33 -5 74 -12 90 -14 17
-2 48 -7 70 -11 22 -4 49 -8 60 -10 11 -1 20 -3 20 -4 0 -1 11 -3 25 -6 120
-20 611 -142 624 -155 6 -5 17 -9 26 -9 47 0 338 -135 480 -222 52 -32 104
-64 115 -71 11 -7 22 -14 25 -17 3 -3 21 -17 40 -30 19 -13 41 -30 49 -38 8
-7 25 -21 40 -30 51 -34 245 -222 289 -281 15 -20 30 -38 33 -41 13 -11 95
-108 109 -129 8 -13 23 -32 32 -43 10 -11 20 -29 23 -39 8 -24 31 -25 31 -1 1
25 14 150 21 202 10 63 10 452 0 530 -11 101 -17 144 -22 160 -2 8 -7 31 -10
50 -3 19 -12 67 -20 105 -18 87 -24 118 -30 175 -3 25 -8 61 -11 80 -34 212
-34 651 0 878 3 18 8 52 11 75 10 68 15 101 20 117 2 8 7 31 10 50 3 19 8 42
10 50 2 8 7 29 10 45 3 17 12 55 20 85 9 30 18 62 20 70 2 8 4 15 5 15 1 0 3
8 5 17 2 9 8 32 14 50 6 18 11 35 11 38 0 3 22 62 49 132 26 70 46 129 44 132
-3 3 -27 -4 -54 -14 -27 -11 -49 -17 -49 -14 0 4 -6 2 -12 -3 -7 -5 -35 -18
-63 -28 -58 -21 -139 -60 -210 -100 -27 -16 -59 -33 -70 -39 -11 -6 -49 -31
-84 -56 -35 -25 -73 -52 -85 -60 -11 -8 -27 -23 -34 -32 -7 -10 -18 -18 -24
-18 -12 0 -175 -163 -238 -239 -25 -29 -50 -59 -56 -65 -5 -6 -39 -54 -75
-106 -35 -52 -68 -98 -72 -101 -5 -3 -9 -10 -9 -15 0 -5 -17 -38 -38 -74 -59
-101 -159 -320 -177 -385 -1 -5 -16 -48 -32 -95 -17 -47 -31 -93 -31 -102 0
-10 -3 -18 -7 -18 -5 0 -8 73 -8 163 -1 231 -11 319 -64 547 -28 119 -76 281
-91 310 -7 14 -12 25 -11 25 1 0 0 7 -3 15 -26 82 -47 142 -62 175 -10 22 -19
45 -20 50 -2 12 -112 268 -149 350 -75 163 -164 351 -373 785 -69 144 -133
309 -146 380 -2 14 -7 32 -10 40 -5 15 -12 51 -22 120 -9 54 -12 75 -14 75
-10 0 -15 365 -6 450 10 90 30 215 46 275 5 19 11 46 14 60 2 14 9 36 14 50 5
14 10 28 11 33 0 4 1 8 2 10 0 1 2 9 4 17 3 17 33 106 42 130 4 8 7 17 8 20 1
3 6 16 12 30 6 14 19 45 29 70 10 25 31 69 46 99 15 29 28 54 28 55 0 3 -38 5
-42 1z"/>
<path d="M6758 7605 c-3 -3 -84 -8 -179 -11 -96 -2 -196 -6 -224 -8 -27 -2
-93 -7 -145 -11 -120 -9 -213 -19 -315 -31 -16 -2 -48 -6 -70 -8 -36 -4 -63
-8 -120 -20 -11 -2 -42 -7 -69 -10 -27 -4 -52 -9 -55 -10 -3 -2 -28 -7 -55
-10 -27 -4 -52 -9 -56 -11 -3 -2 -25 -6 -49 -10 -24 -3 -53 -10 -66 -15 -13
-5 -25 -7 -27 -5 -2 2 -28 -2 -58 -11 -30 -8 -73 -17 -95 -20 -22 -4 -78 -17
-125 -31 -47 -14 -89 -26 -95 -27 -5 -2 -17 -5 -25 -8 -8 -3 -51 -18 -95 -33
-86 -30 -251 -98 -300 -123 -16 -9 -35 -17 -42 -18 -7 -1 -25 -10 -40 -21 -15
-10 -46 -27 -68 -38 -22 -11 -42 -23 -45 -26 -3 -3 -20 -14 -39 -24 -34 -17
-191 -122 -201 -134 -3 -3 -25 -22 -50 -41 -61 -47 -108 -90 -204 -186 -86
-87 -103 -106 -144 -169 -15 -22 -32 -44 -38 -50 -30 -27 -157 -236 -225 -370
-65 -129 -163 -370 -175 -429 -2 -10 -15 -58 -29 -107 -14 -48 -27 -98 -29
-111 -3 -12 -5 -23 -6 -23 -1 0 -3 -7 -5 -15 -1 -8 -12 -58 -23 -110 -11 -52
-24 -115 -27 -140 -4 -24 -8 -47 -10 -50 -1 -3 -6 -25 -9 -50 -3 -25 -8 -56
-11 -70 -2 -14 -7 -45 -9 -70 -3 -25 -8 -65 -12 -90 -4 -25 -8 -64 -8 -87 -1
-24 -3 -43 -6 -43 -3 0 -5 -17 -6 -38 0 -20 -4 -75 -7 -122 -29 -363 -30
-1195 -2 -1495 2 -27 7 -81 9 -120 3 -38 8 -88 11 -110 7 -47 15 -114 16 -135
0 -8 7 -55 15 -105 7 -49 16 -106 18 -125 8 -56 17 -100 33 -175 8 -38 16 -79
19 -90 4 -22 11 -49 25 -110 6 -22 13 -53 16 -70 3 -16 9 -35 14 -40 4 -6 10
-22 12 -35 5 -27 52 -173 66 -205 5 -11 17 -40 26 -65 30 -81 96 -221 137
-292 14 -25 24 -48 22 -51 -2 -2 2 -10 11 -17 8 -7 15 -16 15 -21 0 -8 118
-190 129 -199 4 -3 18 -21 31 -40 131 -187 362 -387 649 -559 100 -60 323
-172 371 -186 3 -1 23 -9 45 -19 62 -27 287 -100 340 -110 6 -1 19 -5 30 -9
11 -3 31 -9 45 -12 14 -3 63 -14 110 -25 47 -11 128 -27 180 -36 52 -9 104
-18 114 -20 11 -2 40 -6 65 -9 25 -3 56 -7 68 -9 12 -3 53 -8 90 -11 37 -4 82
-9 98 -11 33 -4 164 -15 235 -19 25 -2 45 -4 45 -4 0 -15 1052 -21 1270 -7
254 15 406 27 515 42 53 7 80 11 140 18 30 4 62 9 70 11 8 2 33 7 55 10 42 6
72 11 115 20 36 8 71 14 105 20 17 3 38 8 47 11 9 3 27 7 40 10 13 3 28 6 33
8 6 1 30 8 55 15 56 15 254 79 289 94 14 5 28 11 31 12 11 2 118 45 155 61 22
10 42 18 45 19 13 2 204 98 270 135 70 40 269 167 280 180 3 3 27 24 55 45 99
80 140 118 233 222 247 278 431 625 536 1013 21 79 47 178 52 201 2 10 6 29 9
41 10 45 54 284 60 323 3 22 7 51 10 65 7 39 17 121 21 165 2 22 5 60 8 85 19
180 24 234 33 395 12 224 7 1240 -7 1240 0 0 -3 29 -5 65 -2 36 -7 92 -10 125
-4 33 -8 80 -11 105 -4 40 -16 140 -30 240 -3 19 -11 71 -19 115 -8 44 -17 96
-20 115 -3 19 -8 42 -10 50 -2 8 -6 27 -9 42 -3 15 -17 74 -31 130 -15 57 -28
110 -30 118 -2 8 -8 26 -13 40 -5 14 -10 27 -10 30 -1 9 -57 180 -69 210 -3 8
-7 20 -8 25 -6 24 -64 150 -125 271 -77 151 -152 265 -273 416 -74 93 -210
238 -223 238 -2 0 -17 14 -34 31 -16 18 -30 29 -30 26 0 -3 -12 6 -27 20 -63
59 -238 179 -358 245 -202 112 -493 223 -662 252 -18 4 -42 10 -55 15 -13 5
-26 9 -31 9 -4 0 -56 12 -115 26 -59 13 -120 27 -137 30 -16 3 -41 7 -55 10
-35 8 -127 24 -175 31 -71 11 -98 16 -104 19 -3 2 -35 7 -71 11 -36 3 -78 8
-95 10 -94 13 -171 20 -320 29 -55 3 -136 8 -180 12 -44 3 -147 7 -228 8 -82
2 -151 6 -154 10 -3 3 -13 1 -22 -4 -10 -5 -23 -5 -30 -1 -7 5 -30 5 -52 1
-21 -4 -39 -4 -39 1 0 4 -13 4 -29 -1 -19 -5 -31 -5 -33 1 -2 6 -6 7 -10 4z
m377 -699 c21 -4 47 -9 59 -11 12 -3 50 -7 86 -10 36 -2 65 -5 65 -6 0 -1 11
-2 25 -4 72 -5 140 -19 178 -36 24 -10 65 -21 91 -25 59 -8 70 -14 76 -43 2
-12 6 -30 9 -39 5 -16 9 -37 21 -107 27 -154 32 -186 40 -265 3 -25 7 -60 10
-78 3 -17 8 -48 10 -67 3 -19 7 -52 10 -72 3 -21 8 -58 11 -83 5 -47 10 -82
19 -140 2 -19 7 -57 10 -85 5 -50 11 -94 21 -157 3 -18 7 -55 9 -83 2 -27 7
-68 9 -90 15 -115 33 -338 40 -491 2 -56 8 -134 12 -175 3 -41 8 -144 9 -229
2 -85 6 -211 10 -280 4 -69 8 -226 10 -350 1 -124 6 -259 10 -302 4 -42 8
-112 9 -156 2 -43 6 -84 10 -91 4 -6 3 -11 -2 -11 -5 0 -6 -17 -2 -40 4 -22 3
-40 -2 -40 -5 0 -5 -8 0 -17 9 -22 8 -195 -2 -211 -4 -7 -3 -12 1 -12 5 0 8
-17 7 -37 -1 -21 -3 -38 -3 -38 -1 0 -3 -47 -6 -105 -3 -92 -7 -155 -20 -290
-6 -72 -21 -203 -30 -268 -3 -22 -8 -63 -10 -93 -7 -67 -14 -145 -19 -184 -2
-16 -6 -61 -10 -100 -4 -38 -9 -81 -11 -95 -3 -14 -7 -63 -10 -111 -2 -47 -7
-102 -10 -122 -3 -20 -7 -54 -10 -74 -3 -21 -7 -49 -10 -63 -28 -187 -28 -182
-39 -242 -3 -13 -7 -39 -11 -58 -3 -19 -12 -66 -20 -105 -9 -38 -17 -79 -19
-90 -7 -46 -19 -101 -24 -110 -3 -5 -7 -23 -9 -39 -2 -17 -7 -34 -11 -38 -6
-6 -101 -33 -152 -43 -8 -2 -15 -4 -15 -5 0 -4 -104 -26 -160 -34 -16 -3 -47
-7 -68 -10 -66 -10 -167 -17 -302 -21 -71 -2 -134 -4 -140 -5 -5 -1 -12 -2
-15 -1 -3 1 -66 4 -140 6 -188 6 -313 18 -410 40 -34 7 -65 13 -119 22 -51 8
-59 9 -66 13 -3 1 -8 3 -12 4 -5 1 -22 6 -40 10 -39 9 -50 21 -57 67 -3 20 -8
42 -10 50 -6 14 -10 37 -26 124 -4 28 -11 66 -15 85 -4 19 -8 44 -10 55 -6 41
-16 101 -21 125 -3 14 -7 41 -10 60 -2 19 -7 46 -9 60 -7 36 -16 89 -19 114
-3 20 -10 60 -22 121 -6 31 -9 54 -18 140 -4 28 -8 61 -11 74 -2 14 -7 47 -10
75 -3 28 -8 62 -10 76 -2 14 -7 50 -10 80 -3 30 -8 66 -10 80 -2 14 -7 50 -10
80 -4 30 -9 66 -11 80 -2 14 -6 53 -9 88 -2 35 -7 77 -11 95 -3 18 -7 73 -10
122 -2 50 -6 122 -8 160 -5 90 -16 382 -22 550 -6 186 -5 1215 1 1310 2 44 7
139 10 210 5 133 9 180 19 250 3 22 8 69 11 105 4 36 8 79 11 96 3 17 6 46 8
65 2 19 7 59 11 89 4 30 8 66 10 80 12 109 17 148 21 170 3 14 7 41 9 60 8 66
15 120 21 163 4 23 7 57 8 74 0 18 5 33 9 33 5 0 6 4 3 8 -4 7 9 101 34 232 6
30 12 66 14 80 2 14 7 36 10 50 3 14 8 37 11 53 3 15 7 39 10 55 3 15 8 38 11
52 3 14 8 34 10 45 24 134 30 151 57 151 43 1 99 14 140 33 47 21 78 28 152
36 28 3 66 8 85 10 68 9 126 14 230 20 58 4 106 8 107 9 5 5 341 -2 378 -8z"/>
</g>
</svg>
