<?xml version="1.0" standalone="no"?>
<!DOCTYPE svg PUBLIC "-//W3C//DTD SVG 1.1//EN" "http://www.w3.org/Graphics/SVG/1.1/DTD/svg11.dtd" >
<svg xmlns="http://www.w3.org/2000/svg" xmlns:xlink="http://www.w3.org/1999/xlink" version="1.1">
<metadata>
Created by FontForge 20190801 at Thu May  4 16:38:24 2017
 By root
Copyright (c) 2011 by Gesine Todt. All rights reserved.
</metadata>
<defs>
<font id="BigshotOne-Regular" horiz-adv-x="520" >
  <font-face 
    font-family="Bigshot One"
    font-weight="400"
    font-stretch="normal"
    units-per-em="1000"
    panose-1="2 0 5 3 2 0 0 2 0 4"
    ascent="800"
    descent="-200"
    x-height="449"
    cap-height="615"
    bbox="-35 -179 923 869"
    underline-thickness="50"
    underline-position="-100"
    unicode-range="U+0020-2215"
  />
<missing-glyph horiz-adv-x="160" 
 />
    <glyph glyph-name=".notdef" horiz-adv-x="160" 
 />
    <glyph glyph-name=".null" horiz-adv-x="0" 
 />
    <glyph glyph-name="nonmarkingreturn" horiz-adv-x="160" 
 />
    <glyph glyph-name="space" unicode=" " horiz-adv-x="160" 
 />
    <glyph glyph-name="exclam" unicode="!" horiz-adv-x="312" 
d="M213 198h-53l-60 294q0 43 20.5 68.5t65.5 25.5q42 0 62 -26t20 -68zM106 62q0 45 19 66t64 21q48 0 65.5 -21t17.5 -66t-19 -65.5t-64 -20.5t-64 20.5t-19 65.5z" />
    <glyph glyph-name="quotedbl" unicode="&#x22;" horiz-adv-x="282" 
d="M50 615h72l-10 -192h-52zM160 615h72l-10 -192h-52z" />
    <glyph glyph-name="numbersign" unicode="#" horiz-adv-x="464" 
d="M116 240l20 102h-72v58h84l35 177h62l-35 -177h88l35 177h62l-35 -177h64v-58h-76l-20 -102h72v-58h-83l-36 -182h-62l36 182h-88l-36 -182h-62l36 182h-65v58h76zM178 240h88l20 102h-88z" />
    <glyph glyph-name="dollar" unicode="$" horiz-adv-x="563" 
d="M50 404q0 32 11 60t35.5 49t64 35t96.5 17v59h62v-59q23 -2 42.5 -6t35.5 -9l94 19v-180q-62 2 -100.5 34.5t-46.5 90.5l-25 5v-175l7 -2q31 -10 65 -25t62 -36.5t46.5 -50t18.5 -65.5q0 -85 -56 -128t-153 -50v-53h-62v52q-38 1 -62 5.5t-38 9.5l-84 -16v209
q37 -1 65 -13.5t47.5 -34t30.5 -51t13 -63.5l28 -2v190q-33 14 -67.5 28.5t-63.5 34.5t-47.5 48.5t-18.5 72.5zM345 106q0 23 -9.5 42t-26.5 34v-150l24 2q3 7 6 18q2 9 4 22.5t2 31.5zM221 452q0 -29 9 -47.5t27 -31.5v148l-23 -3q-4 -9 -7 -20q-2 -9 -4 -21t-2 -25z" />
    <glyph glyph-name="percent" unicode="%" horiz-adv-x="817" 
d="M302 0h-66l280 577h66zM177 442q0 -22 1 -40t3 -32q2 -16 5 -30q10 -4 18 -4t18 4q2 14 4 31q2 14 3.5 32.5t1.5 38.5q0 22 -1.5 41t-3.5 33q-2 16 -4 29q-8 4 -18 4q-8 0 -18 -4q-3 -14 -5 -31q-2 -14 -3 -32.5t-1 -39.5zM50 443q0 77 34.5 110t120.5 33q42 0 71 -8
t47 -25t26 -44t8 -66t-8 -66t-26 -44t-47 -25t-71 -8q-86 0 -120.5 33t-34.5 110zM587 133q0 -22 1 -40t3 -32q2 -16 5 -30q10 -4 18 -4t18 4q2 14 4 31q2 14 3.5 32.5t1.5 38.5q0 22 -1.5 41t-3.5 33q-2 16 -4 29q-8 4 -18 4q-8 0 -18 -4q-3 -14 -5 -31q-2 -14 -3 -32.5
t-1 -39.5zM460 134q0 77 34.5 110t120.5 33q42 0 71 -8t47 -25t26 -44t8 -66t-8 -66t-26 -44t-47 -25t-71 -8q-86 0 -120.5 33t-34.5 110z" />
    <glyph glyph-name="ampersand" unicode="&#x26;" horiz-adv-x="610" 
d="M318 559q-12 0 -22.5 -0.5t-18.5 -1.5q-10 -1 -17 -2q-4 -9 -8 -21q-3 -11 -5 -26.5t-2 -35.5q0 -21 1 -38t3 -30q2 -15 5 -27h346v-58h-104v-138q0 -53 -15.5 -88t-44 -56t-70 -30t-92.5 -9q-54 0 -97 8.5t-72 29.5t-44.5 56t-15.5 88q0 66 30 109.5t93 58.5
q-52 15 -77 45t-25 81q0 79 61 111t191 32q27 0 58 -4.5t57.5 -17t44 -35t17.5 -58.5v-7h-60v6q0 18 -10 29t-26.5 17.5t-37.5 9t-43 2.5zM247 61q4 -2 8 -3q10 -2 24 -2q81 0 120 29.5t39 102.5v131h-186q-7 -19 -11 -41q-4 -19 -7 -44t-3 -51q0 -28 2.5 -50t5.5 -38
q4 -18 8 -34z" />
    <glyph glyph-name="quotesingle" unicode="'" horiz-adv-x="172" 
d="M50 615h72l-10 -192h-52z" />
    <glyph glyph-name="parenleft" unicode="(" horiz-adv-x="392" 
d="M322 -135q-70 8 -123.5 40t-90 84.5t-55 124t-18.5 158.5t18.5 158.5t55 124.5t90 85t123.5 40v-61q-25 -4 -43 -10.5t-30 -13.5q-14 -8 -25 -18q-5 -48 -9 -100q-4 -45 -6.5 -98.5t-2.5 -106.5t2.5 -107t6.5 -98q4 -52 9 -99q11 -10 25 -18q12 -7 30 -14t43 -10v-61z
" />
    <glyph glyph-name="parenright" unicode=")" horiz-adv-x="392" 
d="M70 -74q24 3 42.5 10t30.5 14q14 8 25 18q5 47 9 99q3 44 6 98t3 107t-3 106.5t-6 98.5q-4 52 -9 100q-11 10 -25 18q-12 7 -30.5 13.5t-42.5 10.5v61q70 -8 123.5 -40t90 -85t55 -124.5t18.5 -158.5t-18.5 -158.5t-55 -124t-90 -84.5t-123.5 -40v61z" />
    <glyph glyph-name="asterisk" unicode="*" horiz-adv-x="436" 
d="M188 496l-23 96q0 17 10.5 28t32.5 11q20 0 30 -11t10 -28l-21 -94l82 52q8 2 14 2q17 0 28 -14t11 -32q0 -12 -8 -21t-20 -14l-84 -7q2 -3 6 -7q3 -4 6.5 -9t8.5 -10q12 -14 25 -25.5t31 -11.5q14 0 28.5 2.5t30.5 7.5v-53q-14 -5 -28 -7.5t-28 -2.5q-49 0 -74.5 23.5
t-45.5 68.5l-39 -93q-9 -16 -30 -16q-16 0 -30 12t-14 29q0 12 6 23l76 65l-101 8q-12 4 -20 12.5t-8 21.5q0 17 10 32.5t30 15.5q7 0 13 -3z" />
    <glyph glyph-name="plus" unicode="+" horiz-adv-x="472" 
d="M205 234h-155v58h155v157h62v-157h155v-58h-155v-157h-62v157z" />
    <glyph glyph-name="comma" unicode="," horiz-adv-x="266" 
d="M50 62q0 45 19 66t64 21q48 0 65.5 -21t17.5 -66q0 -54 -3 -89.5t-16.5 -57.5t-42 -31t-80.5 -9v48h8q42 0 60 11t20 45q-14 -3 -29 -3q-45 0 -64 20.5t-19 65.5z" />
    <glyph glyph-name="hyphen" unicode="-" horiz-adv-x="392" 
d="M342 322v-58h-292v58h292z" />
    <glyph glyph-name="period" unicode="." horiz-adv-x="266" 
d="M50 62q0 45 19 66t64 21q48 0 65.5 -21t17.5 -66t-19 -65.5t-64 -20.5t-64 20.5t-19 65.5z" />
    <glyph glyph-name="slash" unicode="/" horiz-adv-x="408" 
d="M108 -46h-68l260 690h68z" />
    <glyph glyph-name="zero" unicode="0" horiz-adv-x="605" 
d="M232 288q0 -51 3.5 -95t8.5 -76q5 -38 13 -70q6 -2 13 -4q6 -2 14.5 -3t17.5 -1t17.5 1t14.5 3q7 2 13 4q7 33 13 72q5 33 9 76.5t4 92.5q0 51 -4 94.5t-9 75.5q-6 38 -13 70q-6 2 -13 4q-6 2 -14.5 3t-17.5 1t-17.5 -1t-14.5 -3q-7 -2 -13 -4q-8 -33 -13 -72
q-5 -33 -8.5 -76.5t-3.5 -91.5zM50 287q0 81 14 137.5t45 92.5t78.5 52.5t115.5 16.5q67 0 115 -16.5t78.5 -52.5t44.5 -92.5t14 -137.5q0 -80 -14 -136.5t-44.5 -92.5t-78.5 -52.5t-115 -16.5q-68 0 -115.5 16.5t-78.5 52.5t-45 92.5t-14 136.5z" />
    <glyph glyph-name="one" unicode="1" horiz-adv-x="411" 
d="M134 543l132 52h21v-537h89v-58h-336v58h89v427h-89v58h94z" />
    <glyph glyph-name="two" unicode="2" horiz-adv-x="477" 
d="M225 588q48 0 83 -12.5t57.5 -34.5t33.5 -52t11 -64q0 -61 -29.5 -96t-89.5 -60q-32 -14 -62 -28t-56 -37q-11 -10 -20 -19t-16 -17q-8 -9 -14 -16h246v67h52q2 -11 5 -26q2 -13 4 -30.5t2 -38.5q0 -60 -25.5 -92t-92.5 -32h-294q5 84 33.5 141t87.5 101q15 11 29.5 20.5
t25.5 16.5l25 15q3 20 7 41q2 18 4.5 40t2.5 44q0 17 -2.5 37.5t-5.5 37.5q-4 20 -7 41q-24 0 -48.5 -2.5t-44.5 -8.5t-33 -17t-13 -29v-26h-60v27q0 38 22 59.5t53.5 32.5t66.5 14t62 3z" />
    <glyph glyph-name="three" unicode="3" horiz-adv-x="460" 
d="M226 339q2 17 5 37t3 43q0 17 -2.5 37.5t-5.5 37.5q-4 20 -7 41q-24 0 -48.5 -2.5t-44.5 -8.5t-33 -17t-13 -29v-26h-60v27q0 38 22 59.5t53.5 32.5t66.5 14t62 3q48 0 82 -12.5t55 -34.5t30.5 -52t9.5 -64q0 -45 -13.5 -73.5t-44.5 -48.5q37 -20 54.5 -54t17.5 -94
q0 -78 -44 -121.5t-147 -43.5q-27 0 -62 3t-66.5 14t-53.5 32.5t-22 59.5v32h60v-31q0 -18 13 -29t33 -17t44.5 -8.5t48.5 -2.5q3 20 7 39q3 17 5.5 36.5t2.5 37.5q0 32 -4 68.5t-7 56.5h-94v58h97z" />
    <glyph glyph-name="four" unicode="4" horiz-adv-x="517" 
d="M-10 182l255 399l158 25v-387h109v-58h-109v-103h89v-58h-346v58h99v103h-255v21zM245 219v244l-153 -244h153z" />
    <glyph glyph-name="five" unicode="5" horiz-adv-x="455" 
d="M121 426v-87h82q51 0 92 -5.5t70 -24t44.5 -54t15.5 -95.5q0 -82 -47 -126t-144 -44q-27 0 -62 3t-66.5 14t-53.5 32.5t-22 59.5v27h60v-26q0 -18 13 -29t33 -17t44.5 -8.5t48.5 -2.5q3 22 7 44q3 19 5.5 40t2.5 39q0 20 -2 40.5t-4 37.5q-3 19 -5 37h-170v293h276v57h51
q2 -8 5 -19q2 -10 4 -25.5t2 -36.5q0 -60 -25.5 -92t-92.5 -32h-162z" />
    <glyph glyph-name="six" unicode="6" horiz-adv-x="547" 
d="M279 -10q-63 0 -106.5 16.5t-71 52t-39.5 92t-12 136.5q0 81 12 137.5t38.5 92.5t69 52.5t103.5 16.5q27 0 62 -3t66.5 -14t53 -33t21.5 -59v-27h-60v26q0 18 -12.5 29t-32.5 17t-44.5 8.5t-48.5 2.5q-10 0 -17 -0.5t-12 -1.5t-9 -2q-3 -29 -5 -62t-2 -68v-57
q11 1 22.5 1.5t23.5 0.5q52 0 94.5 -6t72 -24.5t45.5 -52t16 -87.5q0 -46 -12 -80.5t-39 -57.5t-70.5 -34.5t-106.5 -11.5zM232 166q0 -27 2 -50t4 -40q3 -20 6 -36q4 -2 9 -3t11 -1.5t15 -0.5q8 0 14.5 0.5t11.5 1.5t9 3q3 16 6 36q2 17 4.5 40t2.5 50t-2.5 50.5t-4.5 40.5
q-3 20 -6 36l-10 2q-5 1 -11 2t-14 1t-21 -0.5t-26 -1.5v-130z" />
    <glyph glyph-name="seven" unicode="7" horiz-adv-x="438" 
d="M211 289q17 37 34 71t34 66h-151q-34 0 -56.5 8t-36 24t-19.5 39t-6 53q0 40 5 62q3 11 6 19h51v-57h356v-22q-22 -37 -46 -79q-20 -36 -45 -83.5t-48 -100.5h67v-58h-92q-26 -63 -43 -123t-17 -108h-73q0 50 15.5 109.5t40.5 121.5h-82v58h106z" />
    <glyph glyph-name="eight" unicode="8" horiz-adv-x="576" 
d="M73 442q0 34 10.5 61t34.5 45.5t63 28t97 9.5h20q31 0 54.5 0.5t39.5 5t24.5 13.5t8.5 26h54q0 -32 -15 -48.5t-41 -24.5q33 -18 47 -47.5t14 -68.5q0 -47 -19.5 -77t-67.5 -44q57 -16 83.5 -53t26.5 -101q0 -91 -54 -134t-175 -43q-120 0 -174 43t-54 134q0 64 26.5 101
t83.5 53q-48 14 -67.5 44t-19.5 77zM232 166q0 -27 2 -50.5t4 -40.5q3 -20 6 -36q4 -1 9 -2t11.5 -1.5t14.5 -0.5t15 0.5t12 1.5t9 2q3 16 6 36q2 17 4 40.5t2 50.5t-2 51t-4 41q-3 20 -6 37h-71q-3 -17 -6 -37q-2 -17 -4 -41t-2 -51zM244 442q0 -20 1 -37t3 -30
q2 -15 5 -27h53q2 12 4 27q2 13 3.5 30t1.5 37t-1.5 37.5t-3.5 30.5q-2 15 -4 27q-4 0 -8 1t-8.5 1.5t-10.5 0.5q-11 0 -19 -2q-4 -1 -7 -1q-3 -12 -5 -27q-2 -13 -3 -30.5t-1 -37.5z" />
    <glyph glyph-name="nine" unicode="9" horiz-adv-x="547" 
d="M268 586q63 0 106.5 -16.5t71 -52t39.5 -92t12 -136.5q0 -81 -12 -137.5t-38.5 -92.5t-69 -52.5t-103.5 -16.5q-27 0 -62 3t-66.5 14t-53 32.5t-21.5 59.5v27h60v-26q0 -18 12.5 -29t32.5 -17t44.5 -8.5t48.5 -2.5q10 0 17 0.5t12 1.5t9 2q3 29 5 62t2 68v57
q-11 -1 -22.5 -1.5t-23.5 -0.5q-53 0 -95 6t-71.5 24.5t-45.5 52t-16 87.5q0 46 12 80.5t39 57.5t70.5 34.5t106.5 11.5zM315 410q0 27 -2 50t-4 40q-3 19 -6 36q-4 1 -9 2t-11.5 2t-14.5 1q-9 0 -15 -1t-11 -2t-9 -2q-4 -17 -7 -36q-2 -17 -4 -40t-2 -50q0 -28 2 -51t4 -40
q3 -20 7 -36q5 -2 10 -3t11 -1.5t14 -0.5t21 0.5t26 1.5v130z" />
    <glyph glyph-name="colon" unicode=":" horiz-adv-x="286" 
d="M80 62q0 45 19 66t64 21q48 0 65.5 -21t17.5 -66t-19 -65.5t-64 -20.5t-64 20.5t-19 65.5zM80 369q0 45 19 66t64 21q48 0 65.5 -21t17.5 -66t-19 -65.5t-64 -20.5t-64 20.5t-19 65.5z" />
    <glyph glyph-name="semicolon" unicode=";" horiz-adv-x="286" 
d="M80 369q0 45 19 66t64 21q48 0 65.5 -21t17.5 -66t-19 -65.5t-64 -20.5t-64 20.5t-19 65.5zM80 62q0 45 19 66t64 21q48 0 65.5 -21t17.5 -66q0 -54 -3 -89.5t-16.5 -57.5t-42 -31t-80.5 -9v48h8q42 0 60 11t20 45q-14 -3 -29 -3q-45 0 -64 20.5t-19 65.5z" />
    <glyph glyph-name="less" unicode="&#x3c;" horiz-adv-x="391" 
d="M296 450l33 -48l-195 -135l197 -137l-35 -50l-266 185z" />
    <glyph glyph-name="equal" unicode="=" horiz-adv-x="472" 
d="M412 395v-58h-352v58h352zM412 235v-58h-352v58h352z" />
    <glyph glyph-name="greater" unicode="&#x3e;" horiz-adv-x="391" 
d="M95 80l-33 48l194 135l-196 137l35 50l266 -185z" />
    <glyph glyph-name="question" unicode="?" horiz-adv-x="394" 
d="M105 62q0 45 19 66t64 21q48 0 65.5 -21t17.5 -66t-19 -65.5t-64 -20.5t-64 20.5t-19 65.5zM159 198v96q11 12 20 30q8 15 14 39t6 56q0 25 -1.5 46t-3.5 37q-3 18 -5 33q-48 0 -78.5 -12t-30.5 -45v-26h-60v27q0 37 19 58.5t46.5 32.5t59.5 14.5t59 3.5q48 0 81 -12.5
t52.5 -34.5t28 -52t8.5 -64t-10 -64t-30.5 -52.5t-51 -35.5t-70.5 -13v-62h-53z" />
    <glyph glyph-name="at" unicode="@" horiz-adv-x="836" 
d="M594 94h10q62 0 82.5 43t20.5 123q0 121 -69 183t-209 62q-69 0 -123.5 -19t-92.5 -55t-58.5 -89t-20.5 -122q0 -137 62 -209.5t193 -72.5q25 0 50.5 2.5t46 8.5t33.5 15.5t13 23.5v12h62v-11q0 -26 -15 -46t-42.5 -33.5t-65.5 -21t-83 -7.5q-159 0 -238.5 87.5
t-79.5 252.5q0 82 24.5 145.5t71 107t113 66t149.5 22.5q168 0 255.5 -74t87.5 -227q0 -47 -8.5 -87t-28.5 -69t-53.5 -46t-83.5 -17q-46 0 -85 10t-59 30q-23 -19 -49.5 -29.5t-56.5 -10.5q-67 0 -102.5 41.5t-35.5 141.5q0 51 10 85.5t32.5 56.5t58.5 31.5t89 9.5
q30 0 57 -5t43 -9l95 4v-304zM436 361q-5 1 -9 1.5t-8 0.5q-8 0 -14 -1t-11 -2t-9 -2q-3 -16 -6 -36q-2 -17 -4 -41.5t-2 -55.5q0 -38 2 -62.5t4 -39.5q3 -18 6 -27q25 0 51 24v241z" />
    <glyph glyph-name="A" unicode="A" horiz-adv-x="628" 
d="M77 58l188 540l128 23l225 -600v-21h-182l-71 197h-178l-48 -139h108v-58h-237v58h67zM207 255h137l-69 193z" />
    <glyph glyph-name="B" unicode="B" horiz-adv-x="639" 
d="M114 58v499h-89v58h230q18 0 34 1t32 1q129 0 190.5 -34.5t61.5 -119.5q0 -59 -29.5 -91t-73.5 -45q63 -16 93.5 -53.5t30.5 -103.5q0 -47 -15.5 -80t-46.5 -53.5t-79 -29.5t-112 -9q-17 0 -37 1t-43 1h-236v58h89zM282 300v-249q25 -3 59 -3q11 0 20.5 0.5t16.5 1.5
q8 1 14 3q4 15 8 33q3 16 5.5 37.5t2.5 49.5q0 26 -3.5 49.5t-7.5 40.5q-4 20 -10 37h-105zM321 566q-21 0 -39 -3v-211h103q2 14 4 32q2 15 3.5 34.5t1.5 42.5t-2.5 41.5t-5.5 32.5q-4 15 -7 27q-7 1 -17 2q-8 1 -19 1.5t-22 0.5z" />
    <glyph glyph-name="C" unicode="C" horiz-adv-x="572" 
d="M516 411q-62 0 -98 24t-54.5 54t-24.5 57t-6 34q-17 -1 -30.5 -2t-22.5 -3q-11 -2 -19 -4q-9 -35 -15 -77q-5 -36 -9.5 -84t-4.5 -102q0 -55 4.5 -102.5t9.5 -83.5q6 -42 15 -78q6 -2 16 -4q16 -3 51 -3q33 0 60.5 7.5t47.5 24t31.5 43t11.5 63.5v31h58v-28
q0 -51 -17 -87.5t-46 -60t-66.5 -34.5t-79.5 -11q-72 0 -125 17.5t-88.5 56.5t-52.5 100.5t-17 148.5t17.5 148t54 100t93 56.5t134.5 17.5q34 0 65 -2.5t55 -5.5q28 -4 52 -7v-204z" />
    <glyph glyph-name="D" unicode="D" horiz-adv-x="710" 
d="M151 615q17 0 44.5 1t57.5 1.5t60 1.5t52 1q78 0 135 -16t93.5 -53t54 -96.5t17.5 -146.5t-17.5 -147t-54 -96.5t-93.5 -52.5t-135 -16q-28 0 -58.5 0.5t-59.5 1.5t-54.5 1.5t-41.5 0.5h-126v58h89v499h-89v58h126zM282 570v-522h120q16 0 27 1q12 1 20 2q8 34 14 75
q5 35 10 81.5t5 100.5q0 56 -5 102.5t-10 80.5q-6 40 -14 72q-8 1 -20 3q-11 2 -26.5 3t-37.5 1h-83z" />
    <glyph glyph-name="E" unicode="E" horiz-adv-x="617" 
d="M552 615v-204q-50 0 -82.5 16t-53 39t-30.5 48t-14 43h-90v-222h175v-58h-175v-219h105q4 18 14 43t30 48t53 39.5t83 16.5v-205h-542v58h89v499h-89v58h527z" />
    <glyph glyph-name="F" unicode="F" horiz-adv-x="562" 
d="M542 615v-219q-50 0 -83.5 18t-53.5 43.5t-30 53t-13 46.5h-80v-242h165v-58h-165v-199h91v-58h-348v58h89v199h-89v58h89v242h-89v58h517z" />
    <glyph glyph-name="G" unicode="G" horiz-adv-x="661" 
d="M596 411q-60 0 -95.5 22.5t-55 51.5t-25.5 56t-7 37q-19 2 -37 2h-32q-20 0 -35 -1.5t-26 -3.5q-12 -2 -22 -4q-9 -35 -15 -77q-5 -36 -9.5 -84t-4.5 -102q0 -55 4.5 -102.5t9.5 -83.5q6 -42 15 -78q11 -3 24 -5q11 -2 26 -3t33 -1q20 0 45 4t49 14v189h-58v58h226v-296
l-119 13q-35 -17 -73.5 -24.5t-69.5 -7.5q-78 0 -134.5 17.5t-93 56.5t-54 100.5t-17.5 148.5t17.5 148t54 100t93 56.5t134.5 17.5q34 0 77.5 -2.5t82.5 -5.5q46 -4 92 -7v-204z" />
    <glyph glyph-name="H" unicode="H" horiz-adv-x="736" 
d="M711 615v-58h-89v-499h89v-58h-257v277h-172v-219h73v-58h-330v58h89v499h-89v58h307v-58h-50v-222h172v222h-50v58h307z" />
    <glyph glyph-name="I" unicode="I" horiz-adv-x="396" 
d="M371 615v-58h-89v-499h89v-58h-346v58h89v499h-89v58h346z" />
    <glyph glyph-name="J" unicode="J" horiz-adv-x="498" 
d="M188 236v-58h-67v-56q0 -13 3 -26t9.5 -23.5t17.5 -17t27 -6.5h43v508h-89v58h346v-58h-89v-427q0 -40 -10.5 -66.5t-32.5 -43t-56 -23.5t-81 -7q-45 0 -74 9t-46 25.5t-24 41t-7 54.5v58h-73v58h203z" />
    <glyph glyph-name="K" unicode="K" horiz-adv-x="658" 
d="M658 0h-184l-184 286h-8v-228h69v-58h-326v58h89v499h-89v58h257v-268l189 210h-76v58h257v-58h-101l-142 -158l249 -378v-21z" />
    <glyph glyph-name="L" unicode="L" horiz-adv-x="567" 
d="M25 0v58h89v499h-89v58h346v-58h-89v-499h84q2 18 10 45t27 52t51 42.5t83 17.5v-215h-512z" />
    <glyph glyph-name="M" unicode="M" horiz-adv-x="853" 
d="M288 615l149 -351l134 351h257v-58h-89v-499h89v-58h-257v450l-172 -448l-1 1l-1 -3h-31l-189 456v-398h89v-58h-241v58h89v499h-89v58h263z" />
    <glyph glyph-name="N" unicode="N" horiz-adv-x="666" 
d="M178 615l326 -330v272h-89v58h241v-58h-89v-557h-31l-359 378v-320h89v-58h-241v58h89v499h-89v58h153z" />
    <glyph glyph-name="O" unicode="O" horiz-adv-x="690" 
d="M45 308q0 87 17.5 148t54 100t93 56.5t134.5 17.5q10 0 19 -0.5t18 -0.5h60q36 0 64 2t47 9.5t29 21.5t10 39h54q0 -57 -28 -81.5t-83 -32.5q57 -36 83.5 -104t26.5 -175q0 -87 -17.5 -148.5t-54 -100.5t-93.5 -56.5t-135 -17.5t-134.5 17.5t-93 56.5t-54 100.5
t-17.5 148.5zM232 308q0 -57 4.5 -105t9.5 -83q6 -41 15 -76q10 -3 22 -5q11 -2 26 -3t35 -1t36 1t27 3q12 2 21 5q8 37 14 79q5 36 10 83.5t5 101.5q0 56 -5 104t-10 83q-6 41 -14 76q-10 2 -22 4q-11 2 -26.5 3.5t-35.5 1.5t-35 -1.5t-26 -3.5q-12 -2 -22 -4
q-9 -37 -15 -79q-5 -36 -9.5 -83.5t-4.5 -100.5z" />
    <glyph glyph-name="P" unicode="P" horiz-adv-x="604" 
d="M261 615q11 0 24 0.5t24.5 0.5t20 0.5t11.5 0.5q129 0 191 -42t62 -144q0 -101 -61.5 -143t-191.5 -42h-28q-15 0 -31 1v-189h89v-58h-346v58h89v499h-89v58h236zM341 566q-17 0 -32 -1t-27 -3v-260q25 -3 59 -3q23 0 37 3q8 1 14 3q4 14 8 32q3 16 5.5 39.5t2.5 53.5
q0 31 -2.5 55t-5.5 41q-4 19 -8 34q-6 1 -14 3q-7 1 -16.5 2t-20.5 1z" />
    <glyph glyph-name="Q" unicode="Q" horiz-adv-x="689" 
d="M45 308q0 87 17.5 148t54 100t93 56.5t134.5 17.5t135 -17.5t93.5 -56.5t54 -100t17.5 -148q0 -83 -16 -142.5t-49 -98.5t-84 -58.5t-121 -22.5v-64q0 -21 9.5 -29t23.5 -8q18 0 24.5 11t6.5 23v31h58v-30q0 -11 -3.5 -25.5t-13 -28t-27 -23t-45.5 -9.5q-48 0 -69.5 23.5
t-21.5 64.5v64q-71 3 -122 22.5t-84 58t-49 98t-16 143.5zM374 138v-102q24 1 40 5q8 2 14 3q8 37 14 79q5 36 10 83.5t5 101.5q0 56 -5 104t-10 83q-6 41 -14 76q-10 2 -22 4q-11 2 -26.5 3.5t-35.5 1.5t-35 -1.5t-26 -3.5q-12 -2 -22 -4q-9 -37 -15 -79q-5 -36 -9.5 -83.5
t-4.5 -100.5q0 -57 4.5 -105t9.5 -83q6 -41 15 -76q6 -1 14 -3q7 -2 17 -3.5t24 -2.5v103h58z" />
    <glyph glyph-name="R" unicode="R" horiz-adv-x="650" 
d="M114 58v499h-89v58h230q18 0 39.5 1t26.5 1q130 0 191 -42t61 -127q0 -59 -28.5 -93.5t-71.5 -51.5l175 -282v-21h-184l-165 280h-17v-222h69v-58h-326v58h89zM321 566q-21 0 -39 -3v-238h103q2 18 4 38q2 17 3.5 38.5t1.5 44.5t-2.5 44t-5.5 37q-4 18 -7 35q-7 1 -17 2
q-8 1 -19 1.5t-22 0.5z" />
    <glyph glyph-name="S" unicode="S" horiz-adv-x="553" 
d="M287 626q32 0 58.5 -4.5t46.5 -11.5l94 19v-204q-72 2 -116 41t-51 107q-20 4 -47 4q-10 0 -16.5 -1t-11.5 -2l-10 -2q-4 -8 -7 -19q-2 -9 -4 -21.5t-2 -27.5q0 -53 23.5 -78t76.5 -42q31 -11 64 -27.5t60.5 -40.5t45 -56.5t17.5 -73.5q0 -104 -64 -152.5t-179 -48.5
q-49 0 -78 5.5t-45 10.5l-84 -16v224q39 -1 69 -14.5t51 -36.5t33 -54t14 -68q8 -1 15 -1h17q10 0 21.5 0.5t21.5 1.5q11 1 23 2q3 7 6 18q2 9 4 23t2 34q0 44 -21 70.5t-53 45.5t-68.5 35t-68.5 38t-53 55t-21 86q0 39 12 72t39.5 57.5t73 38.5t112.5 14z" />
    <glyph glyph-name="T" unicode="T" horiz-adv-x="658" 
d="M623 615v-189q-49 0 -78.5 14.5t-46 34.5t-22.5 42.5t-7 39.5h-56v-499h89v-58h-346v58h89v499h-57q-1 -17 -6.5 -39.5t-22 -42.5t-46.5 -34.5t-78 -14.5v189h588z" />
    <glyph glyph-name="U" unicode="U" horiz-adv-x="666" 
d="M109 557h-89v58h257v-475q0 -17 2 -34.5t5 -31.5q3 -17 7 -32q3 -2 14 -3q8 -1 24 -1.5t42 -0.5q59 0 93.5 21t34.5 72v427h-104v58h266v-58h-99v-427q0 -44 -18 -72t-48 -44t-69.5 -22.5t-82.5 -6.5q-53 0 -96.5 6t-74.5 22.5t-47.5 44.5t-16.5 72v427z" />
    <glyph glyph-name="V" unicode="V" horiz-adv-x="623" 
d="M550 557l-205 -571h-25l-310 608v21h182l185 -366l111 308h-107v58h237v-58h-68z" />
    <glyph glyph-name="W" unicode="W" horiz-adv-x="928" 
d="M857 557l-187 -571h-25l-193 404l-132 -404h-25l-290 608v21h182l161 -354l67 206l-60 127v21h182l161 -354l97 296h-109v58h237v-58h-66z" />
    <glyph glyph-name="X" unicode="X" horiz-adv-x="626" 
d="M518 557l-132 -187l235 -348v-22h-212l-149 226l-105 -168h97v-58h-237v58h68l140 223l-205 312v22h203l129 -192l95 134h-92v58h237v-58h-72z" />
    <glyph glyph-name="Y" unicode="Y" horiz-adv-x="598" 
d="M15 615h182l156 -283l100 225h-102v58h237v-58h-74l-135 -300v-199h89v-58h-346v58h89v195l-196 341v21z" />
    <glyph glyph-name="Z" unicode="Z" horiz-adv-x="593" 
d="M55 18l277 549h-122q0 -15 -5 -39t-21 -46.5t-46.5 -39t-81.5 -16.5v189h480v-19l-270 -548h119q1 17 7 44t23 53t49 45t84 19v-209h-493v18z" />
    <glyph glyph-name="bracketleft" unicode="[" horiz-adv-x="382" 
d="M307 644v-58h-89v-633h89v-58h-257v749h257z" />
    <glyph glyph-name="backslash" unicode="\" horiz-adv-x="408" 
d="M40 644h68l260 -690h-68z" />
    <glyph glyph-name="bracketright" unicode="]" horiz-adv-x="382" 
d="M75 -105v58h89v633h-89v58h257v-749h-257z" />
    <glyph glyph-name="asciicircum" unicode="^" 
d="M270 615l175 -252l-50 -35l-137 196l-135 -194l-48 33l175 252h20z" />
    <glyph glyph-name="underscore" unicode="_" horiz-adv-x="440" 
d="M440 -78v-58h-440v58h440z" />
    <glyph glyph-name="grave" unicode="`" 
d="M382 514l-25 -28l-197 109q-21 18 -21 43q0 12 5.5 23.5t14 21t19.5 15t22 5.5q20 0 37 -14z" />
    <glyph glyph-name="a" unicode="a" horiz-adv-x="516" 
d="M448 50h13q9 0 18 1l22 2v-48q-18 -3 -35 -5q-14 -2 -30 -3t-26 -1q-49 0 -74 18t-36 39q-22 -28 -50.5 -44.5t-65.5 -16.5q-68 0 -101 25.5t-33 88.5q0 22 0.5 42t2.5 35q2 18 4 32l232 57q-1 29 -2 53.5t-2 41.5q-2 20 -3 36q-3 1 -9 2q-5 1 -15 2t-24 1q-9 0 -17 -0.5
t-16 -1.5q-3 -14 -10 -33.5t-22 -37t-39.5 -30t-62.5 -12.5v151q32 3 65 6q29 2 62 4t64 2q65 0 102.5 -11t57 -38t25 -72t5.5 -112v-173zM216 46q20 5 38.5 25.5t35.5 49.5v106l-76 -21q-2 -16 -3 -32.5t-1 -32.5q0 -20 0.5 -37t2.5 -30q1 -15 3 -28z" />
    <glyph glyph-name="b" unicode="b" horiz-adv-x="559" 
d="M5 615h59l158 29v-241q28 24 61.5 38t70.5 14q41 0 73 -12.5t53.5 -40t32.5 -72t11 -107.5q0 -64 -12 -108.5t-40 -72t-72.5 -39.5t-108.5 -12q-38 0 -72.5 6.5t-54.5 11.5l-100 -5v561h-59v50zM342 401q-33 0 -64.5 -21.5t-55.5 -53.5v-281q17 -5 35 -7t34 -2q24 0 38 3
q8 1 13 3q5 23 9 51q3 24 6 57.5t3 72.5q0 48 -3 81.5t-6 55.5q-4 26 -9 41z" />
    <glyph glyph-name="c" unicode="c" horiz-adv-x="445" 
d="M406 295q-42 0 -67.5 14.5t-40.5 33.5t-21 38.5t-7 29.5h-24q-7 0 -12 -1t-9 -2q-4 -2 -8 -3q-5 -24 -9 -52q-4 -24 -6.5 -57.5t-2.5 -72.5t2.5 -72t6.5 -57q4 -28 9 -51q4 -2 11 -3q5 -1 14 -1.5t22 -0.5q22 0 42 4t34.5 14.5t23 28.5t8.5 46h48q0 -48 -16 -76
t-40.5 -42.5t-53 -18.5t-52.5 -4q-61 0 -103.5 12.5t-69 40t-38.5 72t-12 108.5t10.5 108.5t36.5 72t69.5 40t110.5 12.5q24 0 49.5 -1t46.5 -3q25 -2 48 -3v-154z" />
    <glyph glyph-name="d" unicode="d" horiz-adv-x="568" 
d="M278 615h59l158 29v-594h13q9 0 18 1l22 2v-48q-18 -3 -35 -5q-14 -2 -30 -3t-26 -1q-49 0 -74 18t-36 39q-29 -29 -65.5 -45t-76.5 -16q-41 0 -73 12.5t-53.5 40t-32.5 72t-11 107.5q0 64 12 108.5t40 72t72 39.5t109 12q18 0 35 -2l34 -4v115h-59v50zM217 46
q33 0 64.5 21t55.5 53v281q-17 5 -35.5 7.5t-33.5 2.5q-13 0 -22 -1t-16 -2q-8 -2 -13 -3q-5 -24 -9 -52q-4 -24 -6.5 -57t-2.5 -72q0 -48 2.5 -81.5t6.5 -55.5q4 -26 9 -41z" />
    <glyph glyph-name="e" unicode="e" horiz-adv-x="486" 
d="M262 456q55 0 91 -10.5t58 -33.5t31 -60.5t9 -92.5q0 -17 -1 -29.5t-2 -20.5q-1 -10 -2 -15h-247q1 -34 4 -61.5t6 -47.5q4 -24 8 -42q3 -2 9 -3q5 -1 14.5 -1.5t24.5 -0.5q25 0 47.5 3.5t39.5 11.5t26.5 22.5t9.5 35.5h54q0 -42 -18.5 -66t-46 -36.5t-59.5 -15.5t-60 -3
q-61 0 -103.5 12.5t-69 40t-38.5 72t-12 108.5t10.5 108.5t36.5 72t69.5 40t110.5 12.5zM217 405q-5 -22 -9 -48q-3 -23 -6 -53.5t-3 -66.5h97q-2 42 -5 73.5t-7 52.5q-4 25 -9 42q-3 1 -7 3q-4 1 -9.5 2t-12.5 1t-12 -1t-9 -2q-4 -2 -8 -3z" />
    <glyph glyph-name="f" unicode="f" horiz-adv-x="369" 
d="M373 489q-41 0 -67 14t-41 33t-21 38t-7 30h-34q-2 -7 -3 -18q-3 -20 -3 -60q0 -35 18 -56t50 -21h78v-51h-106v-347h59v-51h-276v51h59v437q0 34 10 64t30.5 52t52 34.5t73.5 12.5q25 0 58.5 -2.5t69.5 -5.5v-154z" />
    <glyph glyph-name="g" unicode="g" horiz-adv-x="538" 
d="M377 -114h40q33 0 41.5 6.5t8.5 22.5v15h-257q-48 0 -81 7.5t-52.5 23t-28 40t-8.5 58.5q0 26 7 45t17.5 32t23 21t23.5 12q-32 18 -45.5 49.5t-13.5 79.5q0 43 11.5 73.5t37.5 49t68 27t103 8.5h120q25 0 39.5 4t21.5 12.5t8.5 21t1.5 30.5h54q0 -54 -17 -78t-49 -33
q41 -37 41 -115q0 -44 -11.5 -74t-37.5 -48.5t-68 -27t-103 -8.5q-65 0 -108 9q-12 -3 -24.5 -8.5t-23.5 -14t-18 -19.5t-7 -25h290q83 0 117.5 -30.5t34.5 -94.5q0 -32 -5 -55t-17.5 -38t-35.5 -22.5t-59 -7.5h-39v52zM216 298q0 -24 2 -44t5 -34q3 -17 7 -31q5 -1 11 -2
q5 -1 12.5 -1.5t17.5 -0.5t18 0.5t13 1.5q6 1 11 2q3 14 7 31q2 14 4.5 34t2.5 44q0 23 -2.5 43.5t-4.5 34.5q-4 17 -7 31l-12 2q-5 1 -13 1.5t-17 0.5q-10 0 -17.5 -0.5t-12.5 -1.5q-6 -1 -11 -2q-4 -14 -7 -31q-3 -14 -5 -34.5t-2 -43.5z" />
    <glyph glyph-name="h" unicode="h" horiz-adv-x="593" 
d="M25 615h59l158 29v-245q12 16 32 28q17 11 45.5 20t71.5 9q23 0 46.5 -4t43 -14.5t31.5 -28.5t12 -47v-311h59v-51h-217v394q-2 0 -6 1q-8 2 -22 2q-21 0 -37.5 -8.5t-28.5 -19.5t-19.5 -22.5t-10.5 -17.5v-278h59v-51h-276v51h59v514h-59v50z" />
    <glyph glyph-name="i" unicode="i" horiz-adv-x="326" 
d="M30 441h59l158 24v-414h59v-51h-276v51h59v340h-59v50zM89 597q0 42 18 62.5t61 20.5q45 0 62 -20.5t17 -62.5q0 -43 -18.5 -62.5t-60.5 -19.5q-43 0 -61 19.5t-18 62.5z" />
    <glyph glyph-name="j" unicode="j" horiz-adv-x="309" 
d="M27 441h59l158 24v-504q0 -38 -17 -57.5t-61 -34.5l-139 -48l-17 51l76 27v492h-59v50zM86 597q0 42 18 62.5t61 20.5q45 0 62 -20.5t17 -62.5q0 -43 -18.5 -62.5t-60.5 -19.5q-43 0 -61 19.5t-18 62.5z" />
    <glyph glyph-name="k" unicode="k" horiz-adv-x="568" 
d="M288 238h-46v-187h59v-51h-276v51h59v514h-59v50h59l158 29v-352h69q47 0 66.5 11.5t19.5 48.5v46h-80v51h238v-51h-95v-59q0 -41 -22 -66l98 -223h12q8 0 16 1q9 1 19 2v-48q-12 -3 -29 -5q-14 -2 -36 -3t-52 -1q-23 0 -39 4t-27 11.5t-18.5 18t-13.5 24.5z" />
    <glyph glyph-name="l" unicode="l" horiz-adv-x="348" 
d="M10 615h59l158 29v-594q39 0 49.5 20t10.5 68h51q0 -31 -3 -57t-17.5 -45t-44.5 -29.5t-84 -10.5q-37 0 -60.5 11t-36.5 26.5t-18 32t-5 27.5v472h-59v50z" />
    <glyph glyph-name="m" unicode="m" horiz-adv-x="855" 
d="M30 431h59l151 29v-67q4 6 14.5 17t27.5 21t41.5 17.5t57.5 7.5q19 0 39 -3t37.5 -10t31.5 -19t20 -31q3 4 12 14.5t25.5 21.5t41.5 19t60 8q23 0 46.5 -4t43 -14.5t31.5 -28.5t12 -47v-311h59v-51h-217v394l-3 1q-2 1 -6 1.5t-12 0.5q-17 0 -31.5 -9t-26 -20.5
t-19.5 -23t-11 -16.5v-277h59v-51h-217v394l-3 1q-2 1 -6 1.5t-12 0.5q-17 0 -31.5 -9t-26 -20.5t-19.5 -23t-11 -16.5v-277h59v-51h-276v51h59v330h-59v50z" />
    <glyph glyph-name="n" unicode="n" horiz-adv-x="603" 
d="M30 431h59l151 29v-70q2 3 11 14t27 22.5t47 20.5t71 9q23 0 46.5 -4t43 -14.5t31.5 -28.5t12 -47v-311h59v-51h-217v394q-2 0 -6 1q-8 2 -22 2q-21 0 -37.5 -8.5t-28.5 -19.5t-19.5 -22.5t-10.5 -17.5v-278h59v-51h-276v51h59v330h-59v50z" />
    <glyph glyph-name="o" unicode="o" horiz-adv-x="536" 
d="M199 223q0 -39 2.5 -72.5t6.5 -57.5q4 -29 9 -52q5 -2 13 -3q13 -3 38 -3q24 0 38 3q8 1 13 3q5 23 9 52q3 24 6 57.5t3 72.5t-3 72t-6 58q-4 28 -9 52q-6 1 -14 3q-7 1 -16.5 2t-20.5 1q-13 0 -22 -1t-16 -2q-8 -2 -13 -3q-5 -24 -9 -52q-4 -25 -6.5 -58t-2.5 -72z
M35 223q0 64 12 108.5t40 72t72 40t109 12.5q64 0 108.5 -12.5t72.5 -40t40 -72t12 -108.5t-12 -108.5t-40 -72t-72.5 -40t-108.5 -12.5q-65 0 -109 12.5t-72 40t-40 72t-12 108.5z" />
    <glyph glyph-name="p" unicode="p" horiz-adv-x="578" 
d="M25 431h59l151 29v-63q29 27 64 42.5t74 15.5q41 0 73 -12.5t53.5 -40t32.5 -72t11 -107.5q0 -64 -12 -108.5t-40 -72t-72.5 -39.5t-108.5 -12q-18 0 -35 2t-33 4v-162h-217v51h59v495h-59v50zM361 401q-33 0 -64 -21t-55 -52v-283q17 -5 35 -7t33 -2q24 0 38 3q8 1 13 3
q5 23 9 51q3 24 6 57.5t3 72.5q0 48 -3 81.5t-6 55.5q-4 26 -9 41z" />
    <glyph glyph-name="q" unicode="q" horiz-adv-x="555" 
d="M278 -114h59v158q-28 -24 -61.5 -38t-70.5 -14q-41 0 -73 12.5t-53.5 40t-32.5 72t-11 107.5q0 64 12 108.5t40 72t72 39.5t109 12q38 0 72.5 -7t54.5 -12l100 6v-608h-217v51zM217 46q33 0 64.5 21t55.5 53v282q-17 4 -35.5 6.5t-33.5 2.5q-13 0 -22 -1t-16 -2
q-8 -2 -13 -3q-5 -24 -9 -52q-4 -24 -6.5 -57t-2.5 -72q0 -48 2.5 -81.5t6.5 -55.5q4 -26 9 -41z" />
    <glyph glyph-name="r" unicode="r" horiz-adv-x="445" 
d="M30 431h59l151 29v-64q1 3 7.5 12.5t21 20t38 19t59.5 8.5q22 0 34.5 -1t19.5 -2q8 -1 10 -2v-193q-36 0 -60 14t-39 35t-23 44t-11 41q-9 -5 -17 -13.5t-14.5 -18t-11.5 -18t-7 -13.5v-278h59v-51h-276v51h59v330h-59v50z" />
    <glyph glyph-name="s" unicode="s" horiz-adv-x="457" 
d="M248 454q23 0 42 -3.5t34 -8.5l67 15v-154q-38 0 -62.5 11.5t-39.5 28t-22.5 35t-10.5 31.5h-8q-9 0 -15.5 -0.5t-11.5 -1.5t-8 -2q-3 -4 -5 -10q-2 -5 -3 -14t-1 -21q0 -19 4 -31t12.5 -20t22.5 -13t35 -11q27 -7 53.5 -17.5t47.5 -27.5t34.5 -42.5t13.5 -61.5
q0 -40 -14 -67.5t-39.5 -44.5t-63 -24.5t-83.5 -7.5q-38 0 -63.5 3.5t-40.5 8.5l-69 -15v164q37 0 62 -13t40 -31t22 -37.5t10 -33.5q6 -1 11 -1h29q9 0 16 1q8 1 15 2q2 4 4 11q2 6 3.5 16t1.5 24q0 29 -16.5 46t-41.5 28.5t-53.5 22t-53.5 26t-41.5 41t-16.5 68.5
q0 30 10.5 54.5t34 41.5t62.5 26t96 9z" />
    <glyph glyph-name="t" unicode="t" horiz-adv-x="368" 
d="M65 495l158 43v-89h120v-50h-120v-349h21q58 0 58 88h51q0 -32 -3.5 -58t-19 -45t-46 -29t-84.5 -10q-37 0 -63 8.5t-42 22.5t-23 31t-7 35v402z" />
    <glyph glyph-name="u" unicode="u" horiz-adv-x="580" 
d="M15 431h59l151 29v-405q2 -1 6 -2t22 -1q21 0 37 8.5t28 19.5t20 22t11 17v330h158v-399h13q9 0 18 1l22 2v-48q-18 -3 -35 -5q-14 -2 -30 -3t-26 -1q-26 0 -45 5.5t-32.5 14.5t-22.5 20.5t-13 22.5q-2 -3 -11 -14t-27.5 -22.5t-47 -20.5t-70.5 -9q-23 0 -46.5 4
t-43 14.5t-31.5 28.5t-12 47v294h-52v50z" />
    <glyph glyph-name="v" unicode="v" horiz-adv-x="531" 
d="M-15 449h209l129 -257l90 206h-80v51h208v-51h-70l-184 -428h-21l-227 428h-54v51z" />
    <glyph glyph-name="w" unicode="w" horiz-adv-x="734" 
d="M-15 449h200l116 -245l52 106l-57 119v20h147l113 -249l64 198h-74v51h198v-51h-63l-144 -428h-21l-129 269l-130 -269h-21l-200 428h-51v51z" />
    <glyph glyph-name="x" unicode="x" horiz-adv-x="527" 
d="M10 449h203l99 -139l59 88h-60v51h188v-51h-60l-92 -136l175 -243v-19h-179l-120 172l-74 -121h63v-51h-195v51h64l106 172l-122 175h-55v51z" />
    <glyph glyph-name="y" unicode="y" horiz-adv-x="531" 
d="M-15 449h209l115 -291l104 240h-80v51h208v-51h-70l-200 -468q-9 -22 -19.5 -39.5t-24 -30t-32 -19t-44.5 -6.5q-28 0 -44.5 9.5t-25.5 23t-11.5 28t-2.5 25.5v30h53v-31q0 -12 6.5 -23t24.5 -11q27 0 41.5 19t25.5 45l11 26l-194 422h-50v51z" />
    <glyph glyph-name="z" unicode="z" horiz-adv-x="468" 
d="M426 430l-205 -382h74q5 16 14.5 37t26 39.5t41.5 31.5t61 13v-169h-403v18l213 383h-82q-3 -15 -10.5 -33.5t-22 -35t-38 -27.5t-59.5 -11v155h390v-19z" />
    <glyph glyph-name="braceleft" unicode="{" horiz-adv-x="425" 
d="M30 281l87 60q-3 40 -3 74q0 53 14.5 96.5t46.5 77t82.5 56.5t122.5 35v-61q-25 -4 -43 -10.5t-30 -13.5q-14 -8 -25 -18q-3 -18 -6 -41q-2 -20 -4 -47t-2 -60q0 -20 -7.5 -36t-19 -28.5t-25.5 -23.5t-28 -20l-68 -46l72 -53q13 -9 26.5 -20t24.5 -23.5t18 -28t7 -34.5
q0 -34 2 -60.5t4 -46.5q3 -23 6 -41q11 -10 25 -18q12 -7 30 -14t43 -10v-61q-72 12 -122.5 35t-82.5 56.5t-46.5 77t-14.5 96.5q0 13 0.5 33.5t2.5 40.5l-87 61v16z" />
    <glyph glyph-name="bar" unicode="|" horiz-adv-x="462" 
d="M200 644h62v-690h-62v690z" />
    <glyph glyph-name="braceright" unicode="}" horiz-adv-x="425" 
d="M395 265l-87 -61q2 -20 2.5 -40.5t0.5 -33.5q0 -53 -14.5 -96.5t-46.5 -77t-82.5 -56.5t-122.5 -35v61q24 3 42.5 10t30.5 14q14 8 25 18q3 18 6 41q2 20 4 46.5t2 60.5q0 19 7 34.5t18 28t24.5 23.5t26.5 20l72 53l-68 46q-14 9 -28 20t-25.5 23.5t-19 28.5t-7.5 36
q0 33 -2 60t-4 47q-3 23 -6 41q-11 10 -25 18q-12 7 -30.5 13.5t-42.5 10.5v61q72 -12 122.5 -35t82.5 -56.5t46.5 -77t14.5 -96.5q0 -34 -3 -74l87 -60v-16z" />
    <glyph glyph-name="asciitilde" unicode="~" horiz-adv-x="510" 
d="M50 270q14 41 44.5 57t75.5 16q22 0 44 -5.5t43 -12t41.5 -12t40.5 -5.5q25 0 43 7t29 29l49 -21q-14 -41 -44.5 -57t-75.5 -16q-21 0 -43 5.5t-44 12t-42.5 12t-39.5 5.5q-25 0 -43 -7t-29 -29z" />
    <glyph glyph-name="uni00A0" unicode="&#xa0;" horiz-adv-x="160" 
 />
    <glyph glyph-name="exclamdown" unicode="&#xa1;" horiz-adv-x="312" 
d="M99 234h53l60 -294q0 -43 -20.5 -68.5t-65.5 -25.5q-42 0 -62 26t-20 68zM206 370q0 -45 -19 -66t-64 -21q-48 0 -65.5 21t-17.5 66t19 65.5t64 20.5t64 -20.5t19 -65.5z" />
    <glyph glyph-name="cent" unicode="&#xa2;" horiz-adv-x="511" 
d="M267 31q-58 2 -99 16t-67.5 42t-38.5 71t-12 104t11 104.5t36.5 71.5t67 41t102.5 15v128h62v-129q34 -2 65.5 -6t47.5 -6l29 7v-153q-33 0 -54.5 12.5t-34.5 29.5t-19 36t-8 32l-26 2v-368q36 5 62 24.5t26 66.5h48q0 -40 -12.5 -66t-32 -41.5t-44 -23t-47.5 -9.5v-98
h-62v97zM267 80v372l-35 -6q-5 -24 -9 -52q-4 -24 -6.5 -57.5t-2.5 -72.5t2.5 -72t6.5 -57q4 -28 9 -51z" />
    <glyph glyph-name="sterling" unicode="&#xa3;" horiz-adv-x="617" 
d="M138 342q5 65 21.5 111.5t48 76t79.5 43t117 13.5q34 0 60.5 -2.5t44.5 -5.5q21 -4 37 -7v-204q-60 0 -95.5 22.5t-55 52t-25.5 56.5t-7 36l-42 -7v-48q0 -23 0.5 -57.5t0.5 -79.5h140v-58h-140q-2 -94 -23.5 -149.5t-68.5 -83.5h144q63 0 104 33t41 106v31h58v-28
q0 -51 -17 -87.5t-46 -60t-66.5 -34.5t-79.5 -11h-325v51h73q5 30 9 67q3 32 6 73.5t4 92.5h-105v58h108z" />
    <glyph glyph-name="currency" unicode="&#xa4;" horiz-adv-x="628" 
d="M30 34l99 99q-48 60 -48 155q0 94 48 154l-99 100l43 44l102 -102q57 37 139 37t139 -37l102 102l43 -44l-99 -100q48 -60 48 -154q0 -95 -48 -155l99 -99l-43 -44l-102 102q-57 -37 -139 -37t-139 37l-102 -102zM149 289q0 -90 42.5 -133t122.5 -43t122.5 43t42.5 133
q0 88 -42.5 131t-122.5 43t-122.5 -42.5t-42.5 -131.5z" />
    <glyph glyph-name="yen" unicode="&#xa5;" horiz-adv-x="598" 
d="M15 577h182l158 -259l96 201h-100v58h237v-58h-75l-118 -244h101v-58h-117v-32h117v-58h-117v-69h89v-58h-346v58h89v69h-117v58h117v32h-117v58h94l-173 281v21z" />
    <glyph glyph-name="brokenbar" unicode="&#xa6;" horiz-adv-x="462" 
d="M200 644h62v-310h-62v310zM200 269h62v-315h-62v315z" />
    <glyph glyph-name="section" unicode="&#xa7;" horiz-adv-x="458" 
d="M223 -96q-30 0 -56.5 4t-46.5 14.5t-31.5 30t-11.5 50.5v27h60v-26q0 -21 18 -34t44 -13q6 0 12.5 0.5t11.5 1.5l12 2q2 6 4 14q2 6 3.5 14.5t1.5 18.5q0 16 -5 27.5t-14.5 19.5t-23.5 14.5t-31 13.5l-40 16q-38 15 -59 46.5t-21 75.5t14 80t37 61q-19 16 -30 38.5
t-11 56.5q0 29 9.5 53t30.5 41.5t54.5 27t80.5 9.5q30 0 56.5 -4t46.5 -14.5t31.5 -30t11.5 -50.5v-27h-60v26q0 21 -18 34t-44 13q-6 0 -12.5 -0.5t-11.5 -1.5l-12 -2q-3 -4 -5 -9t-3 -11.5t-1 -16.5q0 -33 19.5 -47.5t54.5 -27.5l40 -16q38 -15 59 -46.5t21 -75.5
q0 -43 -13.5 -80t-35.5 -64q18 -16 28.5 -38t10.5 -54q0 -29 -9.5 -55t-30.5 -45t-54.5 -30t-80.5 -11zM141 338q-11 -10 -20 -27t-9 -33q12 -17 37.5 -34t57.5 -31l112 -50q10 11 18.5 29t8.5 32q-12 17 -37.5 34t-57.5 31z" />
    <glyph glyph-name="dieresis" unicode="&#xa8;" 
d="M86 597q0 38 16.5 56.5t54.5 18.5q41 0 56 -18.5t15 -56.5t-16.5 -56t-54.5 -18t-54.5 18t-16.5 56zM291 597q0 38 16.5 56.5t54.5 18.5q41 0 56 -18.5t15 -56.5t-16.5 -56t-54.5 -18t-54.5 18t-16.5 56z" />
    <glyph glyph-name="copyright" unicode="&#xa9;" horiz-adv-x="570" 
d="M50 226q0 52 17 94.5t48 73.5t74.5 48t95.5 17q54 0 97.5 -16t74 -46.5t47 -73.5t16.5 -97q0 -52 -17 -95t-48 -73.5t-74.5 -47.5t-95.5 -17q-54 0 -97.5 16t-74 46.5t-47 73.5t-16.5 97zM118 227q0 -90 43.5 -133t123.5 -43q75 0 121 45.5t46 130.5q0 88 -43.5 131
t-123.5 43q-75 0 -121 -44.5t-46 -129.5zM288 318q-3 -11 -5 -25q-2 -12 -3 -29t-1 -37q0 -19 1 -35.5t3 -29.5q2 -15 5 -27h22q18 0 27 11t9 39h36q0 -41 -20.5 -62.5t-71.5 -21.5q-63 0 -89.5 28t-26.5 98q0 35 5.5 59t19.5 39t38 21.5t60 6.5q13 0 27 -1t25 -3
q13 -2 25 -4v-89q-21 0 -34.5 7.5t-21.5 18t-11.5 21.5t-4.5 19z" />
    <glyph glyph-name="ordfeminine" unicode="&#xaa;" horiz-adv-x="430" 
d="M347 392h9q6 0 11 1q6 0 13 1v-38q-12 -2 -23 -4q-10 -2 -21 -2.5t-19 -0.5q-27 0 -46.5 8.5t-31.5 20.5q-14 -15 -32.5 -23.5t-42.5 -8.5q-41 0 -62.5 19t-21.5 51q0 14 0.5 25.5t1.5 21.5q1 11 2 21l137 33q-1 17 -1 30t-1 22q-1 11 -1 19q-1 0 -5 1q-8 2 -20 2h-7
q-3 0 -6 -1q-2 -11 -7.5 -24t-16 -25t-27 -20t-40.5 -8v109q24 2 49 4q21 2 44.5 3t43.5 1q41 0 65 -7t36.5 -23.5t16 -44t3.5 -68.5v-95zM199 398q10 3 22 18v60l-23 -6q-1 -10 -1.5 -19.5t-0.5 -18.5q0 -23 1 -28q1 -4 2 -6z" />
    <glyph glyph-name="guillemotleft" unicode="&#xab;" horiz-adv-x="518" 
d="M84 196q-10 8 -17 19t-7 28v5q1 13 10 24.5t25 25.5l164 137l29 -27l-91 -165l91 -165l-29 -26zM264 196q-10 8 -17 19t-7 28v5q1 13 10 24.5t25 25.5l164 137l29 -27l-91 -165l91 -165l-29 -26z" />
    <glyph glyph-name="logicalnot" unicode="&#xac;" horiz-adv-x="440" 
d="M338 264h-298v58h360v-175h-62v117z" />
    <glyph glyph-name="uni00AD" unicode="&#xad;" horiz-adv-x="392" 
d="M342 322v-58h-292v58h292z" />
    <glyph glyph-name="registered" unicode="&#xae;" horiz-adv-x="570" 
d="M50 397q0 52 17 94.5t48 73.5t74.5 48t95.5 17q54 0 97.5 -16t74 -46.5t47 -73.5t16.5 -97q0 -52 -17 -95t-48 -73.5t-74.5 -47.5t-95.5 -17q-54 0 -97.5 16t-74 46.5t-47 73.5t-16.5 97zM118 398q0 -90 43.5 -133t123.5 -43q75 0 121 45.5t46 130.5q0 88 -43.5 131
t-123.5 43q-75 0 -121 -44.5t-46 -129.5zM194 315v176h-18v26h92q6 0 11 0.5t7 0.5q48 0 76 -15.5t28 -47.5q0 -20 -10 -33.5t-25 -21.5l60 -90l-6 -21h-79l-49 95h-10v-69h26v-26h-121v26h18zM303 454q0 8 -1 14.5t-2 11.5t-2 9q-2 0 -4 1q-2 0 -4 0.5t-4 0.5
q-3 0 -5.5 -0.5t-4.5 -0.5h-5v-75h29q0 6 1 12q1 5 1.5 12t0.5 15z" />
    <glyph glyph-name="macron" unicode="&#xaf;" 
d="M431 624v-58h-342v58h342z" />
    <glyph glyph-name="degree" unicode="&#xb0;" horiz-adv-x="378" 
d="M50 448q0 61 38.5 99.5t100.5 38.5q65 0 102 -36.5t37 -101.5q0 -61 -38.5 -99.5t-100.5 -38.5q-65 0 -102 37t-37 101zM118 449q0 -41 18.5 -61t52.5 -20q32 0 51.5 21.5t19.5 59.5q0 79 -71 79q-32 0 -51.5 -20.5t-19.5 -58.5z" />
    <glyph glyph-name="plusminus" unicode="&#xb1;" horiz-adv-x="472" 
d="M205 238h-155v58h155v153h62v-153h155v-58h-155v-146h-62v146zM422 58v-58h-372v58h372z" />
    <glyph glyph-name="uni00B2" unicode="&#xb2;" horiz-adv-x="336" 
d="M179 630q52 0 76.5 -18t24.5 -45q0 -26 -11 -40.5t-28 -23.5t-37.5 -15.5t-40.5 -14.5q-9 -4 -19.5 -10.5t-15.5 -16.5h113v32h40q1 -14 2 -26q1 -11 2 -23t1 -22q0 -29 -17 -39.5t-49 -10.5h-170q2 38 11.5 69t37.5 51q18 13 29 17t17 7.5t8 12t2 29.5q0 6 -1 14t-2 15
q-1 8 -2 17q-17 0 -34 -4t-17 -18v-16h-48v18q0 18 14 30t34 18.5t42 9.5t38 3z" />
    <glyph glyph-name="uni00B3" unicode="&#xb3;" horiz-adv-x="339" 
d="M160 510q4 10 4 33q0 6 -1 14t-2 15q-1 8 -2 17q-17 0 -34 -4t-17 -18v-16h-48v18q0 18 11.5 30t29.5 18.5t38.5 9.5t38.5 3q49 0 77.5 -19.5t28.5 -52.5q0 -28 -10.5 -44.5t-28.5 -25.5q20 -10 32 -27.5t12 -44.5q0 -30 -29.5 -50.5t-86.5 -20.5q-20 0 -41 3t-38 9.5
t-28 18.5t-11 30v18h48v-16q0 -14 17 -18t34 -4q1 9 2 17q1 7 2 14.5t1 14.5q0 8 -1 15t-2 12l-2 10h-46v41h52z" />
    <glyph glyph-name="acute" unicode="&#xb4;" 
d="M284 689q17 14 37 14q11 0 22 -5.5t19.5 -15t14 -21t5.5 -23.5q0 -25 -21 -43l-197 -109l-25 28z" />
    <glyph glyph-name="uni00B5" unicode="&#xb5;" horiz-adv-x="596" 
d="M31 431h59l151 29v-412q26 0 47.5 9.5t37 22t26 24.5t13.5 17v328h158v-399h13q9 0 18 1l22 2v-48q-18 -3 -35 -5q-14 -2 -30 -3t-26 -1q-26 0 -45 5.5t-32.5 14.5t-22.5 20.5t-13 22.5q-2 -3 -9.5 -12.5t-23 -20t-40 -20t-58.5 -12.5v-159h-216v51h59v495h-53v50z" />
    <glyph glyph-name="paragraph" unicode="&#xb6;" horiz-adv-x="513" 
d="M337 557h-78v-632h-62v325q-91 11 -134 53.5t-43 127.5q0 102 62 144t191 42q22 0 39.5 -1t40.5 -1h135v-58h-89v-632h-62v632z" />
    <glyph glyph-name="periodcentered" unicode="&#xb7;" horiz-adv-x="326" 
d="M80 294q0 45 19 66t64 21q48 0 65.5 -21t17.5 -66t-19 -65.5t-64 -20.5t-64 20.5t-19 65.5z" />
    <glyph glyph-name="cedilla" unicode="&#xb8;" 
d="M278 10v-44h7q29 0 47 -16.5t18 -43.5q0 -32 -21 -52t-61 -20h-59v50h59q11 0 18.5 4t7.5 17q0 11 -8 16t-20 5h-50v84h62z" />
    <glyph glyph-name="uni00B9" unicode="&#xb9;" horiz-adv-x="353" 
d="M127 599l103 31h17v-226h61v-47h-248v47h61v148h-61v47h67z" />
    <glyph glyph-name="ordmasculine" unicode="&#xba;" horiz-adv-x="451" 
d="M191 487q0 -22 1 -40.5t3 -32.5q2 -16 5 -29q3 -1 7 -2q8 -2 18 -2q6 0 10.5 0.5t8.5 1.5t7 2q2 13 4 29q2 14 3 32.5t1 40.5t-1 41t-3 33q-2 16 -4 29q-3 1 -7 2q-10 2 -19 2q-10 0 -18 -2q-4 -1 -7 -2q-3 -13 -5 -29q-2 -14 -3 -33t-1 -41zM60 487q0 39 8.5 66.5
t28 44.5t51 24.5t77.5 7.5t78 -7.5t51.5 -24.5t28 -44.5t8.5 -66.5t-8.5 -66t-28 -44t-51.5 -24.5t-78 -7.5t-77.5 7.5t-51 24.5t-28 44t-8.5 66z" />
    <glyph glyph-name="guillemotright" unicode="&#xbb;" horiz-adv-x="518" 
d="M259 52l-29 26l91 165l-91 165l29 27l164 -137q16 -14 25 -25.5t10 -24.5v-5q0 -17 -7 -28t-17 -19zM79 52l-29 26l91 165l-91 165l29 27l164 -137q16 -14 25 -25.5t10 -24.5v-5q0 -17 -7 -28t-17 -19z" />
    <glyph glyph-name="onequarter" unicode="&#xbc;" horiz-adv-x="776" 
d="M278 0h-66l280 577h66zM147 555l103 31h17v-226h61v-47h-248v47h61v148h-61v47h67zM405 97l114 164l126 12v-148h61v-45h-61v-33h61v-47h-248v47h61v33h-114v17zM520 125l12 84l-52 -84h40z" />
    <glyph glyph-name="onehalf" unicode="&#xbd;" horiz-adv-x="761" 
d="M278 0h-66l280 577h66zM147 555l103 31h17v-226h61v-47h-248v47h61v148h-61v47h67zM579 273q52 0 76.5 -18t24.5 -45q0 -26 -11 -40.5t-28 -23.5t-37.5 -15.5t-40.5 -14.5q-9 -4 -19.5 -10.5t-15.5 -16.5h113v32h40q1 -14 2 -26q1 -11 2 -23t1 -22q0 -29 -17 -39.5
t-49 -10.5h-170q2 38 11.5 69t37.5 51q18 13 29 17t17 7.5t8 12t2 29.5q0 6 -1 14t-2 15q-1 8 -2 17q-17 0 -34 -4t-17 -18v-16h-48v18q0 18 14 30t34 18.5t42 9.5t38 3z" />
    <glyph glyph-name="threequarters" unicode="&#xbe;" horiz-adv-x="780" 
d="M409 97l114 164l126 12v-148h61v-45h-61v-33h61v-47h-248v47h61v33h-114v17zM165 466q4 10 4 33q0 6 -1 14t-2 15q-1 8 -2 17q-17 0 -34 -4t-17 -18v-16h-48v18q0 18 11.5 30t29.5 18.5t38.5 9.5t38.5 3q49 0 77.5 -19.5t28.5 -52.5q0 -28 -10.5 -44.5t-28.5 -25.5
q20 -10 32 -27.5t12 -44.5q0 -30 -29.5 -50.5t-86.5 -20.5q-20 0 -41 3t-38 9.5t-28 18.5t-11 30v18h48v-16q0 -14 17 -18t34 -4q1 9 2 17q1 7 2 14.5t1 14.5q0 8 -1 15t-2 12l-2 10h-46v41h52zM263 0h-66l280 577h66zM524 125l12 84l-52 -84h40z" />
    <glyph glyph-name="questiondown" unicode="&#xbf;" horiz-adv-x="394" 
d="M289 371q0 -45 -19 -66t-64 -21q-48 0 -65.5 21t-17.5 66t19 65.5t64 20.5t64 -20.5t19 -65.5zM235 235v-96q-11 -12 -20 -30q-8 -16 -14 -39.5t-6 -55.5q0 -26 1.5 -46.5t3.5 -36.5q2 -18 5 -33q48 0 78.5 12t30.5 45v26h60v-27q0 -37 -19 -58.5t-46.5 -33t-59.5 -14.5
t-59 -3q-48 0 -81 12.5t-52.5 34.5t-28 52t-8.5 64t10 64t30.5 52.5t50.5 35.5t71 13v62h53z" />
    <glyph glyph-name="Agrave" unicode="&#xc0;" horiz-adv-x="628" 
d="M77 58l188 540l128 23l225 -600v-21h-182l-71 197h-178l-48 -139h108v-58h-237v58h67zM207 255h137l-69 193zM353 682l-22 -29l-209 86q-25 20 -25 50q0 15 6 27t15 20t19.5 12.5t18.5 4.5q14 0 34 -11z" />
    <glyph glyph-name="Aacute" unicode="&#xc1;" horiz-adv-x="628" 
d="M77 58l188 540l128 23l225 -600v-21h-182l-71 197h-178l-48 -139h108v-58h-237v58h67zM207 255h137l-69 193zM472 842q20 11 34 11q8 0 18 -4.5t19 -12.5t15.5 -20t6.5 -27q0 -30 -25 -50l-209 -86l-22 29z" />
    <glyph glyph-name="Acircumflex" unicode="&#xc2;" horiz-adv-x="628" 
d="M77 58l188 540l128 23l225 -600v-21h-182l-71 197h-178l-48 -139h108v-58h-237v58h67zM297 842q15 8 27 10q3 1 6 1h3q2 -1 3 -1l5 -1h2q9 -3 21 -9l163 -160l-22 -29l-175 72l-174 -72l-22 29zM207 255h137l-69 193z" />
    <glyph glyph-name="Atilde" unicode="&#xc3;" horiz-adv-x="628" 
d="M77 58l188 540l128 23l225 -600v-21h-182l-71 197h-178l-48 -139h108v-58h-237v58h67zM207 255h137l-69 193zM167 723q10 41 30.5 57t51.5 16q16 0 32 -5.5t31.5 -12t30.5 -12t29 -5.5q17 0 25.5 10.5t13.5 25.5l49 -21q-10 -41 -30.5 -57t-50.5 -16q-17 0 -33 5.5
t-31.5 12t-30.5 12t-29 5.5q-17 0 -25.5 -10.5t-13.5 -25.5z" />
    <glyph glyph-name="Adieresis" unicode="&#xc4;" horiz-adv-x="628" 
d="M77 58l188 540l128 23l225 -600v-21h-182l-71 197h-178l-48 -139h108v-58h-237v58h67zM207 255h137l-69 193zM140 763q0 38 16.5 56.5t54.5 18.5q41 0 56 -18.5t15 -56.5t-16.5 -56t-54.5 -18t-54.5 18t-16.5 56zM345 763q0 38 16.5 56.5t54.5 18.5q41 0 56 -18.5
t15 -56.5t-16.5 -56t-54.5 -18t-54.5 18t-16.5 56z" />
    <glyph glyph-name="Aring" unicode="&#xc5;" horiz-adv-x="628" 
d="M77 58l181 520q-8 5 -14 11q-29 30 -29 81q0 49 30.5 79.5t80.5 30.5q52 0 81.5 -29t29.5 -81q0 -49 -31 -80l-1 -1l213 -568v-21h-182l-71 197h-178l-48 -139h108v-58h-237v58h67zM207 255h137l-69 193zM275 671q0 -29 13.5 -44t37.5 -15q23 0 37 15.5t14 43.5
q0 57 -51 57q-23 0 -37 -15t-14 -42z" />
    <glyph glyph-name="AE" unicode="&#xc6;" horiz-adv-x="905" 
d="M402 58v169h-172l-88 -169h95v-58h-237v58h72l262 499h-90v58h596v-204q-50 0 -82.5 16t-53 39t-30.5 48t-14 43h-90v-222h175v-58h-175v-219h105q4 18 14 43t30 48t53 39.5t83 16.5v-205h-542v58h89zM402 285v270l-141 -270h141z" />
    <glyph glyph-name="Ccedilla" unicode="&#xc7;" horiz-adv-x="572" 
d="M516 411q-62 0 -98 24t-54.5 54t-24.5 57t-6 34q-17 -1 -30.5 -2t-22.5 -3q-11 -2 -19 -4q-9 -35 -15 -77q-5 -36 -9.5 -84t-4.5 -102q0 -55 4.5 -102.5t9.5 -83.5q6 -42 15 -78q6 -2 16 -4q16 -3 51 -3q33 0 60.5 7.5t47.5 24t31.5 43t11.5 63.5v31h58v-28
q0 -51 -17 -87.5t-46 -60t-67 -34.5q-23 -7 -48 -9v-21h7q29 0 47 -16.5t18 -43.5q0 -32 -21 -52t-61 -20h-59v50h59q11 0 18.5 4t7.5 17q0 11 -8 16t-20 5h-50v60q-53 3 -94 16q-53 18 -88.5 57t-52.5 100.5t-17 148.5t17.5 148t54 100t93 56.5t134.5 17.5q34 0 65 -2.5
t55 -5.5q28 -4 52 -7v-204z" />
    <glyph glyph-name="Egrave" unicode="&#xc8;" horiz-adv-x="617" 
d="M552 615v-204q-50 0 -82.5 16t-53 39t-30.5 48t-14 43h-90v-222h175v-58h-175v-219h105q4 18 14 43t30 48t53 39.5t83 16.5v-205h-542v58h89v499h-89v58h527zM338 682l-22 -29l-209 86q-25 20 -25 50q0 15 6 27t15 20t19.5 12.5t18.5 4.5q14 0 34 -11z" />
    <glyph glyph-name="Eacute" unicode="&#xc9;" horiz-adv-x="617" 
d="M552 615v-204q-50 0 -82.5 16t-53 39t-30.5 48t-14 43h-90v-222h175v-58h-175v-219h105q4 18 14 43t30 48t53 39.5t83 16.5v-205h-542v58h89v499h-89v58h527zM457 842q20 11 34 11q8 0 18 -4.5t19 -12.5t15.5 -20t6.5 -27q0 -30 -25 -50l-209 -86l-22 29z" />
    <glyph glyph-name="Ecircumflex" unicode="&#xca;" horiz-adv-x="617" 
d="M552 615v-204q-50 0 -82.5 16t-53 39t-30.5 48t-14 43h-90v-222h175v-58h-175v-219h105q4 18 14 43t30 48t53 39.5t83 16.5v-205h-542v58h89v499h-89v58h527zM282 842q11 6 20 9h2l5 1q2 1 3 1h3h1q3 0 5 -1q12 -2 28 -10l163 -160l-22 -29l-175 72l-174 -72l-22 29z" />
    <glyph glyph-name="Edieresis" unicode="&#xcb;" horiz-adv-x="617" 
d="M552 615v-204q-50 0 -82.5 16t-53 39t-30.5 48t-14 43h-90v-222h175v-58h-175v-219h105q4 18 14 43t30 48t53 39.5t83 16.5v-205h-542v58h89v499h-89v58h527zM135 763q0 38 16.5 56.5t54.5 18.5q41 0 56 -18.5t15 -56.5t-16.5 -56t-54.5 -18t-54.5 18t-16.5 56zM340 763
q0 38 16.5 56.5t54.5 18.5q41 0 56 -18.5t15 -56.5t-16.5 -56t-54.5 -18t-54.5 18t-16.5 56z" />
    <glyph glyph-name="Igrave" unicode="&#xcc;" horiz-adv-x="396" 
d="M371 615v-58h-89v-499h89v-58h-346v58h89v499h-89v58h346zM221 682l-22 -29l-209 86q-25 20 -25 50q0 15 6 27t15 20t19.5 12.5t18.5 4.5q14 0 34 -11z" />
    <glyph glyph-name="Iacute" unicode="&#xcd;" horiz-adv-x="396" 
d="M371 615v-58h-89v-499h89v-58h-346v58h89v499h-89v58h346zM340 842q20 11 34 11q8 0 18 -4.5t19 -12.5t15.5 -20t6.5 -27q0 -30 -25 -50l-209 -86l-22 29z" />
    <glyph glyph-name="Icircumflex" unicode="&#xce;" horiz-adv-x="396" 
d="M371 615v-58h-89v-499h89v-58h-346v58h89v499h-89v58h346zM165 842q11 6 20 9h2l5 1q2 1 3 1h4q3 0 5.5 -0.5t4.5 -1.5h2q9 -3 21 -9l163 -160l-22 -29l-175 72l-174 -72l-22 29z" />
    <glyph glyph-name="Idieresis" unicode="&#xcf;" horiz-adv-x="396" 
d="M371 615v-58h-89v-499h89v-58h-346v58h89v499h-89v58h346zM25 763q0 38 16.5 56.5t54.5 18.5q41 0 56 -18.5t15 -56.5t-16.5 -56t-54.5 -18t-54.5 18t-16.5 56zM230 763q0 38 16.5 56.5t54.5 18.5q41 0 56 -18.5t15 -56.5t-16.5 -56t-54.5 -18t-54.5 18t-16.5 56z" />
    <glyph glyph-name="Eth" unicode="&#xd0;" horiz-adv-x="710" 
d="M151 615q17 0 44.5 1t57.5 1.5t60 1.5t52 1q78 0 135 -16t93.5 -53t54 -96.5t17.5 -146.5t-17.5 -147t-54 -96.5t-93.5 -52.5t-135 -16q-28 0 -58.5 0.5t-59.5 1.5t-54.5 1.5t-41.5 0.5h-126v58h89v272h-64v58h64v169h-89v58h126zM282 570v-182h60v-58h-60v-281
q43 -3 83 -3h36q16 0 27 1q12 1 21 2q8 35 14 76q5 35 10 82t5 101q0 56 -5 102.5t-10 81.5q-6 40 -14 74q-10 1 -22 2q-11 1 -26.5 1.5t-35.5 0.5h-83z" />
    <glyph glyph-name="Ntilde" unicode="&#xd1;" horiz-adv-x="676" 
d="M178 615l326 -330v272h-89v58h241v-58h-89v-557h-31l-359 378v-320h89v-58h-241v58h89v499h-89v58h153zM184 723q10 41 30.5 57t51.5 16q16 0 32 -5.5t31.5 -12t30.5 -12t29 -5.5q17 0 25.5 10.5t13.5 25.5l49 -21q-10 -41 -30.5 -57t-50.5 -16q-17 0 -33 5.5t-31.5 12
t-30.5 12t-29 5.5q-17 0 -25.5 -10.5t-13.5 -25.5z" />
    <glyph glyph-name="Ograve" unicode="&#xd2;" horiz-adv-x="690" 
d="M45 308q0 87 17.5 148t54 100t93 56.5t134.5 17.5q10 0 19 -0.5t18 -0.5h60q36 0 64 2t47 9.5t29 21.5t10 39h54q0 -57 -28 -81.5t-83 -32.5q57 -36 83.5 -104t26.5 -175q0 -87 -17.5 -148.5t-54 -100.5t-93.5 -56.5t-135 -17.5t-134.5 17.5t-93 56.5t-54 100.5
t-17.5 148.5zM232 308q0 -57 4.5 -105t9.5 -83q6 -41 15 -76q10 -3 22 -5q11 -2 26 -3t35 -1t36 1t27 3q12 2 21 5q8 37 14 79q5 36 10 83.5t5 101.5q0 56 -5 104t-10 83q-6 41 -14 76q-10 2 -22 4q-11 2 -26.5 3.5t-35.5 1.5t-35 -1.5t-26 -3.5q-12 -2 -22 -4
q-9 -37 -15 -79q-5 -36 -9.5 -83.5t-4.5 -100.5zM366 682l-22 -29l-209 86q-25 20 -25 50q0 15 6 27t15 20t19.5 12.5t18.5 4.5q14 0 34 -11z" />
    <glyph glyph-name="Oacute" unicode="&#xd3;" horiz-adv-x="690" 
d="M45 308q0 87 17.5 148t54 100t93 56.5t134.5 17.5q10 0 19 -0.5t18 -0.5h60q36 0 64 2t47 9.5t29 21.5t10 39h54q0 -57 -28 -81.5t-83 -32.5q57 -36 83.5 -104t26.5 -175q0 -87 -17.5 -148.5t-54 -100.5t-93.5 -56.5t-135 -17.5t-134.5 17.5t-93 56.5t-54 100.5
t-17.5 148.5zM232 308q0 -57 4.5 -105t9.5 -83q6 -41 15 -76q10 -3 22 -5q11 -2 26 -3t35 -1t36 1t27 3q12 2 21 5q8 37 14 79q5 36 10 83.5t5 101.5q0 56 -5 104t-10 83q-6 41 -14 76q-10 2 -22 4q-11 2 -26.5 3.5t-35.5 1.5t-35 -1.5t-26 -3.5q-12 -2 -22 -4
q-9 -37 -15 -79q-5 -36 -9.5 -83.5t-4.5 -100.5zM485 842q20 11 34 11q8 0 18 -4.5t19 -12.5t15.5 -20t6.5 -27q0 -30 -25 -50l-209 -86l-22 29z" />
    <glyph glyph-name="Ocircumflex" unicode="&#xd4;" horiz-adv-x="690" 
d="M45 308q0 87 17.5 148t54 100t93 56.5t134.5 17.5q10 0 19 -0.5t18 -0.5q24 0 45 0.5t36.5 4t24 10.5t8.5 19l-149 76l-158 -87l-25 28l138 166q11 14 21 18.5t23 4.5q23 0 44 -21l143 -141q25 -25 25 -54q0 -20 -11 -34.5t-28 -22.5q65 -34 95.5 -103.5t30.5 -184.5
q0 -87 -17.5 -148.5t-54 -100.5t-93.5 -56.5t-135 -17.5t-134.5 17.5t-93 56.5t-54 100.5t-17.5 148.5zM232 308q0 -57 4.5 -105t9.5 -83q6 -41 15 -76q10 -3 22 -5q11 -2 26 -3t35 -1t36 1t27 3q12 2 21 5q8 37 14 79q5 36 10 83.5t5 101.5q0 56 -5 104t-10 83
q-6 41 -14 76q-10 2 -22 4q-11 2 -26.5 3.5t-35.5 1.5t-35 -1.5t-26 -3.5q-12 -2 -22 -4q-9 -37 -15 -79q-5 -36 -9.5 -83.5t-4.5 -100.5z" />
    <glyph glyph-name="Otilde" unicode="&#xd5;" horiz-adv-x="690" 
d="M45 308q0 87 17.5 148t54 100t93 56.5t134.5 17.5q10 0 19 -0.5t18 -0.5h60q36 0 64 2t47 9.5t29 21.5t10 39h54q0 -57 -28 -81.5t-83 -32.5q57 -36 83.5 -104t26.5 -175q0 -87 -17.5 -148.5t-54 -100.5t-93.5 -56.5t-135 -17.5t-134.5 17.5t-93 56.5t-54 100.5
t-17.5 148.5zM232 308q0 -57 4.5 -105t9.5 -83q6 -41 15 -76q10 -3 22 -5q11 -2 26 -3t35 -1t36 1t27 3q12 2 21 5q8 37 14 79q5 36 10 83.5t5 101.5q0 56 -5 104t-10 83q-6 41 -14 76q-10 2 -22 4q-11 2 -26.5 3.5t-35.5 1.5t-35 -1.5t-26 -3.5q-12 -2 -22 -4
q-9 -37 -15 -79q-5 -36 -9.5 -83.5t-4.5 -100.5zM198 723q10 41 30.5 57t51.5 16q16 0 32 -5.5t31.5 -12t30.5 -12t29 -5.5q17 0 25.5 10.5t13.5 25.5l49 -21q-10 -41 -30.5 -57t-50.5 -16q-17 0 -33 5.5t-31.5 12t-30.5 12t-29 5.5q-17 0 -25.5 -10.5t-13.5 -25.5z" />
    <glyph glyph-name="Odieresis" unicode="&#xd6;" horiz-adv-x="690" 
d="M45 308q0 87 17.5 148t54 100t93 56.5t134.5 17.5q10 0 19 -0.5t18 -0.5h60q36 0 64 2t47 9.5t29 21.5t10 39h54q0 -57 -28 -81.5t-83 -32.5q57 -36 83.5 -104t26.5 -175q0 -87 -17.5 -148.5t-54 -100.5t-93.5 -56.5t-135 -17.5t-134.5 17.5t-93 56.5t-54 100.5
t-17.5 148.5zM232 308q0 -57 4.5 -105t9.5 -83q6 -41 15 -76q10 -3 22 -5q11 -2 26 -3t35 -1t36 1t27 3q12 2 21 5q8 37 14 79q5 36 10 83.5t5 101.5q0 56 -5 104t-10 83q-6 41 -14 76q-10 2 -22 4q-11 2 -26.5 3.5t-35.5 1.5t-35 -1.5t-26 -3.5q-12 -2 -22 -4
q-9 -37 -15 -79q-5 -36 -9.5 -83.5t-4.5 -100.5zM171 763q0 38 16.5 56.5t54.5 18.5q41 0 56 -18.5t15 -56.5t-16.5 -56t-54.5 -18t-54.5 18t-16.5 56zM376 763q0 38 16.5 56.5t54.5 18.5q41 0 56 -18.5t15 -56.5t-16.5 -56t-54.5 -18t-54.5 18t-16.5 56z" />
    <glyph glyph-name="multiply" unicode="&#xd7;" horiz-adv-x="502" 
d="M250 225l-149 -150l-41 41l149 149l-142 143l43 43l142 -143l142 143l41 -41l-142 -142l149 -149l-43 -43z" />
    <glyph glyph-name="Oslash" unicode="&#xd8;" horiz-adv-x="689" 
d="M508 601q71 -32 103.5 -103t32.5 -190q0 -87 -17.5 -148.5t-54 -100.5t-93.5 -56.5t-135 -17.5q-62 0 -106 10l-13 -30h-68l22 49q-69 32 -101.5 103.5t-32.5 190.5q0 87 17.5 148t54 100t93 56.5t134.5 17.5q29 0 55.5 -2.5t49.5 -7.5l14 31h68zM428 44q8 37 14 79
q5 36 10 83.5t5 101.5v177l-197 -441q17 -3 39 -6t45 -3q20 0 36 1t27 3q12 2 21 5zM232 133l195 438q-17 3 -38.5 6t-44.5 3q-20 0 -35 -1.5t-26 -3.5q-12 -2 -22 -4q-9 -37 -15 -79q-5 -36 -9.5 -83.5t-4.5 -100.5v-175z" />
    <glyph glyph-name="Ugrave" unicode="&#xd9;" horiz-adv-x="666" 
d="M109 557h-89v58h257v-475q0 -17 2 -34.5t5 -31.5q3 -17 7 -32q3 -2 14 -3q8 -1 24 -1.5t42 -0.5q59 0 93.5 21t34.5 72v427h-104v58h266v-58h-99v-427q0 -44 -18 -72t-48 -44t-69.5 -22.5t-82.5 -6.5q-53 0 -96.5 6t-74.5 22.5t-47.5 44.5t-16.5 72v427zM391 682l-22 -29
l-209 86q-25 20 -25 50q0 15 6 27t15 20t19.5 12.5t18.5 4.5q14 0 34 -11z" />
    <glyph glyph-name="Uacute" unicode="&#xda;" horiz-adv-x="666" 
d="M109 557h-89v58h257v-475q0 -17 2 -34.5t5 -31.5q3 -17 7 -32q3 -2 14 -3q8 -1 24 -1.5t42 -0.5q59 0 93.5 21t34.5 72v427h-104v58h266v-58h-99v-427q0 -44 -18 -72t-48 -44t-69.5 -22.5t-82.5 -6.5q-53 0 -96.5 6t-74.5 22.5t-47.5 44.5t-16.5 72v427zM510 842
q20 11 34 11q8 0 18 -4.5t19 -12.5t15.5 -20t6.5 -27q0 -30 -25 -50l-209 -86l-22 29z" />
    <glyph glyph-name="Ucircumflex" unicode="&#xdb;" horiz-adv-x="666" 
d="M109 557h-89v58h257v-475q0 -17 2 -34.5t5 -31.5q3 -17 7 -32q3 -2 14 -3q8 -1 24 -1.5t42 -0.5q59 0 93.5 21t34.5 72v427h-104v58h266v-58h-99v-427q0 -44 -18 -72t-48 -44t-69.5 -22.5t-82.5 -6.5q-53 0 -96.5 6t-74.5 22.5t-47.5 44.5t-16.5 72v427zM335 842
q15 8 27 10q2 1 3 1h4q2 0 5 -1q12 -2 28 -10l163 -160l-22 -29l-175 72l-174 -72l-22 29z" />
    <glyph glyph-name="Udieresis" unicode="&#xdc;" horiz-adv-x="666" 
d="M109 557h-89v58h257v-475q0 -17 2 -34.5t5 -31.5q3 -17 7 -32q3 -2 14 -3q8 -1 24 -1.5t42 -0.5q59 0 93.5 21t34.5 72v427h-104v58h266v-58h-99v-427q0 -44 -18 -72t-48 -44t-69.5 -22.5t-82.5 -6.5q-53 0 -96.5 6t-74.5 22.5t-47.5 44.5t-16.5 72v427zM159 763
q0 38 16.5 56.5t54.5 18.5q41 0 56 -18.5t15 -56.5t-16.5 -56t-54.5 -18t-54.5 18t-16.5 56zM364 763q0 38 16.5 56.5t54.5 18.5q41 0 56 -18.5t15 -56.5t-16.5 -56t-54.5 -18t-54.5 18t-16.5 56z" />
    <glyph glyph-name="Yacute" unicode="&#xdd;" horiz-adv-x="598" 
d="M15 615h182l156 -283l100 225h-102v58h237v-58h-74l-135 -300v-199h89v-58h-346v58h89v195l-196 341v21zM449 842q20 11 34 11q8 0 18 -4.5t19 -12.5t15.5 -20t6.5 -27q0 -30 -25 -50l-209 -86l-22 29z" />
    <glyph glyph-name="Thorn" unicode="&#xde;" horiz-adv-x="638" 
d="M114 58v499h-89v58h346v-58h-89v-47q11 1 28 1.5t30 0.5q129 0 191 -42t62 -144q0 -101 -61.5 -143t-191.5 -42h-27q-16 0 -31 1v-84h89v-58h-346v58h89zM340 454q-17 0 -31.5 -1t-26.5 -3v-248q24 -3 58 -3q23 0 37 3q8 1 14 3q4 12 8 30q3 15 5.5 37.5t2.5 52.5
q0 31 -2.5 53.5t-5.5 38.5q-4 18 -8 31q-6 1 -14 3q-7 1 -16.5 2t-20.5 1z" />
    <glyph glyph-name="germandbls" unicode="&#xdf;" horiz-adv-x="576" 
d="M267 651q48 0 82.5 -10.5t56 -28.5t31.5 -41.5t10 -48.5q0 -36 -13.5 -58t-32.5 -39l38 -8q56 -12 84 -55t28 -122v-97q0 -80 -37.5 -116t-122.5 -36q-60 0 -92.5 21t-32.5 75v47h52v-43q0 -23 11.5 -38t30.5 -15h20q4 0 8 1v18q0 8 0.5 16t0.5 14v181q0 32 -7 52.5
t-15 31.5q-10 13 -22 20h-79v51h22q25 0 44.5 8t33.5 21t21.5 29.5t7.5 33.5t-6 33t-18.5 28.5t-33 20t-48.5 7.5q-11 0 -19 -0.5t-14 -0.5q-7 -1 -12 -1q-2 -12 -4 -26q-2 -12 -3 -28t-1 -34v-514h-216v51h59v437q0 79 48 121t140 42z" />
    <glyph glyph-name="agrave" unicode="&#xe0;" horiz-adv-x="521" 
d="M453 50h13q9 0 18 1l22 2v-48q-18 -3 -35 -5q-14 -2 -30 -3t-26 -1q-49 0 -74 18t-36 39q-22 -28 -50.5 -44.5t-65.5 -16.5q-68 0 -101 25.5t-33 88.5q0 22 0.5 42t2.5 35q2 18 4 32l232 57q-1 29 -2 53.5t-2 41.5q-2 20 -3 36q-3 1 -9 2q-5 1 -15 2t-24 1q-9 0 -17 -0.5
t-16 -1.5q-3 -14 -10 -33.5t-22 -37t-39.5 -30t-62.5 -12.5v151q32 3 65 6q29 2 62 4t64 2q65 0 102.5 -11t57 -38t25 -72t5.5 -112v-173zM275 514l-25 -28l-197 109q-21 18 -21 43q0 12 5.5 23.5t14 21t19.5 15t22 5.5q20 0 37 -14zM221 46q20 5 38.5 25.5t35.5 49.5v106
l-76 -21q-2 -16 -3 -32.5t-1 -32.5q0 -20 0.5 -37t2.5 -30q1 -15 3 -28z" />
    <glyph glyph-name="aacute" unicode="&#xe1;" horiz-adv-x="521" 
d="M453 50h13q9 0 18 1l22 2v-48q-18 -3 -35 -5q-14 -2 -30 -3t-26 -1q-49 0 -74 18t-36 39q-22 -28 -50.5 -44.5t-65.5 -16.5q-68 0 -101 25.5t-33 88.5q0 22 0.5 42t2.5 35q2 18 4 32l232 57q-1 29 -2 53.5t-2 41.5q-2 20 -3 36q-3 1 -9 2q-5 1 -15 2t-24 1q-9 0 -17 -0.5
t-16 -1.5q-3 -14 -10 -33.5t-22 -37t-39.5 -30t-62.5 -12.5v151q32 3 65 6q29 2 62 4t64 2q65 0 102.5 -11t57 -38t25 -72t5.5 -112v-173zM370 689q17 14 37 14q11 0 22 -5.5t19.5 -15t14 -21t5.5 -23.5q0 -25 -21 -43l-197 -109l-25 28zM221 46q20 5 38.5 25.5t35.5 49.5
v106l-76 -21q-2 -16 -3 -32.5t-1 -32.5q0 -20 0.5 -37t2.5 -30q1 -15 3 -28z" />
    <glyph glyph-name="acircumflex" unicode="&#xe2;" horiz-adv-x="521" 
d="M453 50h13q9 0 18 1l22 2v-48q-18 -3 -35 -5q-14 -2 -30 -3t-26 -1q-49 0 -74 18t-36 39q-22 -28 -50.5 -44.5t-65.5 -16.5q-68 0 -101 25.5t-33 88.5q0 22 0.5 42t2.5 35q2 18 4 32l232 57q-1 29 -2 53.5t-2 41.5q-2 20 -3 36q-3 1 -9 2q-5 1 -15 2t-24 1q-9 0 -17 -0.5
t-16 -1.5q-3 -14 -10 -33.5t-22 -37t-39.5 -30t-62.5 -12.5v151q32 3 65 6q29 2 62 4t64 2q65 0 102.5 -11t57 -38t25 -72t5.5 -112v-173zM205 680q7 8 17.5 15.5t23.5 7.5h8q23 0 41 -23l137 -166l-25 -28l-157 87l-157 -87l-25 28zM221 46q20 5 38.5 25.5t35.5 49.5v106
l-76 -21q-2 -16 -3 -32.5t-1 -32.5q0 -20 0.5 -37t2.5 -30q1 -15 3 -28z" />
    <glyph glyph-name="atilde" unicode="&#xe3;" horiz-adv-x="521" 
d="M453 50h13q9 0 18 1l22 2v-48q-18 -3 -35 -5q-14 -2 -30 -3t-26 -1q-49 0 -74 18t-36 39q-22 -28 -50.5 -44.5t-65.5 -16.5q-68 0 -101 25.5t-33 88.5q0 22 0.5 42t2.5 35q2 18 4 32l232 57q-1 29 -2 53.5t-2 41.5q-2 20 -3 36q-3 1 -9 2q-5 1 -15 2t-24 1q-9 0 -17 -0.5
t-16 -1.5q-3 -14 -10 -33.5t-22 -37t-39.5 -30t-62.5 -12.5v151q32 3 65 6q29 2 62 4t64 2q65 0 102.5 -11t57 -38t25 -72t5.5 -112v-173zM102 557q10 41 30.5 57t51.5 16q16 0 32 -5.5t31.5 -12t30.5 -12t29 -5.5q17 0 25.5 10.5t13.5 25.5l49 -21q-10 -41 -30.5 -57
t-50.5 -16q-17 0 -33 5.5t-31.5 12t-30.5 12t-29 5.5q-17 0 -25.5 -10.5t-13.5 -25.5zM221 46q20 5 38.5 25.5t35.5 49.5v106l-76 -21q-2 -16 -3 -32.5t-1 -32.5q0 -20 0.5 -37t2.5 -30q1 -15 3 -28z" />
    <glyph glyph-name="adieresis" unicode="&#xe4;" horiz-adv-x="521" 
d="M453 50h13q9 0 18 1l22 2v-48q-18 -3 -35 -5q-14 -2 -30 -3t-26 -1q-49 0 -74 18t-36 39q-22 -28 -50.5 -44.5t-65.5 -16.5q-68 0 -101 25.5t-33 88.5q0 22 0.5 42t2.5 35q2 18 4 32l232 57q-1 29 -2 53.5t-2 41.5q-2 20 -3 36q-3 1 -9 2q-5 1 -15 2t-24 1q-9 0 -17 -0.5
t-16 -1.5q-3 -14 -10 -33.5t-22 -37t-39.5 -30t-62.5 -12.5v151q32 3 65 6q29 2 62 4t64 2q65 0 102.5 -11t57 -38t25 -72t5.5 -112v-173zM280 597q0 38 16.5 56.5t54.5 18.5q41 0 56 -18.5t15 -56.5t-16.5 -56t-54.5 -18t-54.5 18t-16.5 56zM75 597q0 38 16.5 56.5
t54.5 18.5q41 0 56 -18.5t15 -56.5t-16.5 -56t-54.5 -18t-54.5 18t-16.5 56zM221 46q20 5 38.5 25.5t35.5 49.5v106l-76 -21q-2 -16 -3 -32.5t-1 -32.5q0 -20 0.5 -37t2.5 -30q1 -15 3 -28z" />
    <glyph glyph-name="aring" unicode="&#xe5;" horiz-adv-x="521" 
d="M453 50h13q9 0 18 1l22 2v-48q-18 -3 -35 -5q-14 -2 -30 -3t-26 -1q-49 0 -74 18t-36 39q-22 -28 -50.5 -44.5t-65.5 -16.5q-68 0 -101 25.5t-33 88.5q0 22 0.5 42t2.5 35q2 18 4 32l232 57q-1 29 -2 53.5t-2 41.5q-2 20 -3 36q-3 1 -9 2q-5 1 -15 2t-24 1q-9 0 -17 -0.5
t-16 -1.5q-3 -14 -10 -33.5t-22 -37t-39.5 -30t-62.5 -12.5v151q32 3 65 6q29 2 62 4t64 2q65 0 102.5 -11t57 -38t25 -72t5.5 -112v-173zM144 600q0 49 30.5 79.5t80.5 30.5q52 0 81.5 -29t29.5 -81q0 -49 -30.5 -79.5t-80.5 -30.5q-52 0 -81.5 29.5t-29.5 80.5zM221 46
q20 5 38.5 25.5t35.5 49.5v106l-76 -21q-2 -16 -3 -32.5t-1 -32.5q0 -20 0.5 -37t2.5 -30q1 -15 3 -28zM204 601q0 -29 13.5 -44t37.5 -15q23 0 37 15.5t14 43.5q0 57 -51 57q-23 0 -37 -15t-14 -42z" />
    <glyph glyph-name="ae" unicode="&#xe6;" horiz-adv-x="746" 
d="M72 444q32 3 65 6q29 2 62 4t64 2q84 0 127 -31q53 31 132 31q55 0 91 -10.5t58 -33.5t31 -60.5t9 -92.5q0 -17 -1 -29.5t-2 -20.5q-1 -10 -2 -15h-247q1 -34 4 -61.5t6 -47.5q4 -24 8 -42q3 -2 9 -3q5 -1 14.5 -1.5t24.5 -0.5q25 0 47.5 3.5t39.5 11.5t26.5 22.5
t9.5 35.5h54q0 -42 -18.5 -66t-46 -36.5t-59.5 -15.5t-60 -3q-78 0 -125.5 20t-71.5 66q-23 -37 -55 -60.5t-77 -23.5q-68 0 -101 25.5t-33 88.5q0 22 0.5 42t2.5 35q2 18 4 32l232 57q-1 29 -2 53.5t-2 41.5q-2 20 -3 36q-3 1 -9 2q-5 1 -15 2t-24 1q-9 0 -17 -0.5
t-16 -1.5q-3 -14 -10 -33.5t-22 -37t-39.5 -30t-62.5 -12.5v151zM477 405q-5 -22 -9 -48q-3 -23 -6 -53.5t-3 -66.5h97q-2 42 -5 73.5t-7 52.5q-4 25 -9 42q-3 1 -7 3q-4 1 -9.5 2t-12.5 1t-12 -1t-9 -2q-4 -2 -8 -3zM221 46q22 6 43 31t38 58q-7 35 -7 88v4l-76 -21
q-2 -16 -3 -32.5t-1 -32.5q0 -20 0.5 -37t2.5 -30q1 -15 3 -28z" />
    <glyph glyph-name="ccedilla" unicode="&#xe7;" horiz-adv-x="445" 
d="M406 295q-42 0 -67.5 14.5t-40.5 33.5t-21 38.5t-7 29.5h-24q-7 0 -12 -1t-9 -2q-4 -2 -8 -3q-5 -24 -9 -52q-4 -24 -6.5 -57.5t-2.5 -72.5t2.5 -72t6.5 -57q4 -28 9 -51q4 -2 11 -3q5 -1 14 -1.5t22 -0.5q22 0 42 4t34.5 14.5t23 28.5t8.5 46h48q0 -48 -16 -76
t-40.5 -42.5t-53.5 -18.5q-15 -2 -29 -3v-25h7q29 0 47 -16.5t18 -43.5q0 -32 -21 -52t-61 -20h-59v50h59q11 0 18.5 4t7.5 17q0 11 -8 16t-20 5h-50v66q-37 2 -65 10q-42 13 -68.5 40.5t-38.5 72t-12 108.5t10.5 108.5t36.5 72t69.5 40t110.5 12.5q24 0 49.5 -1t46.5 -3
q25 -2 48 -3v-154z" />
    <glyph glyph-name="egrave" unicode="&#xe8;" horiz-adv-x="486" 
d="M262 456q55 0 91 -10.5t58 -33.5t31 -60.5t9 -92.5q0 -17 -1 -29.5t-2 -20.5q-1 -10 -2 -15h-247q1 -34 4 -61.5t6 -47.5q4 -24 8 -42q3 -2 9 -3q5 -1 14.5 -1.5t24.5 -0.5q25 0 47.5 3.5t39.5 11.5t26.5 22.5t9.5 35.5h54q0 -42 -18.5 -66t-46 -36.5t-59.5 -15.5t-60 -3
q-61 0 -103.5 12.5t-69 40t-38.5 72t-12 108.5t10.5 108.5t36.5 72t69.5 40t110.5 12.5zM217 405q-5 -22 -9 -48q-3 -23 -6 -53.5t-3 -66.5h97q-2 42 -5 73.5t-7 52.5q-4 25 -9 42q-3 1 -7 3q-4 1 -9.5 2t-12.5 1t-12 -1t-9 -2q-4 -2 -8 -3zM271 514l-25 -28l-197 109
q-21 18 -21 43q0 12 5.5 23.5t14 21t19.5 15t22 5.5q20 0 37 -14z" />
    <glyph glyph-name="eacute" unicode="&#xe9;" horiz-adv-x="486" 
d="M262 456q55 0 91 -10.5t58 -33.5t31 -60.5t9 -92.5q0 -17 -1 -29.5t-2 -20.5q-1 -10 -2 -15h-247q1 -34 4 -61.5t6 -47.5q4 -24 8 -42q3 -2 9 -3q5 -1 14.5 -1.5t24.5 -0.5q25 0 47.5 3.5t39.5 11.5t26.5 22.5t9.5 35.5h54q0 -42 -18.5 -66t-46 -36.5t-59.5 -15.5t-60 -3
q-61 0 -103.5 12.5t-69 40t-38.5 72t-12 108.5t10.5 108.5t36.5 72t69.5 40t110.5 12.5zM217 405q-5 -22 -9 -48q-3 -23 -6 -53.5t-3 -66.5h97q-2 42 -5 73.5t-7 52.5q-4 25 -9 42q-3 1 -7 3q-4 1 -9.5 2t-12.5 1t-12 -1t-9 -2q-4 -2 -8 -3zM366 689q17 14 37 14
q11 0 22 -5.5t19.5 -15t14 -21t5.5 -23.5q0 -25 -21 -43l-197 -109l-25 28z" />
    <glyph glyph-name="ecircumflex" unicode="&#xea;" horiz-adv-x="486" 
d="M262 456q55 0 91 -10.5t58 -33.5t31 -60.5t9 -92.5q0 -17 -1 -29.5t-2 -20.5q-1 -10 -2 -15h-247q1 -34 4 -61.5t6 -47.5q4 -24 8 -42q3 -2 9 -3q5 -1 14.5 -1.5t24.5 -0.5q25 0 47.5 3.5t39.5 11.5t26.5 22.5t9.5 35.5h54q0 -42 -18.5 -66t-46 -36.5t-59.5 -15.5t-60 -3
q-61 0 -103.5 12.5t-69 40t-38.5 72t-12 108.5t10.5 108.5t36.5 72t69.5 40t110.5 12.5zM217 405q-5 -22 -9 -48q-3 -23 -6 -53.5t-3 -66.5h97q-2 42 -5 73.5t-7 52.5q-4 25 -9 42q-3 1 -7 3q-4 1 -9.5 2t-12.5 1t-12 -1t-9 -2q-4 -2 -8 -3zM201 680q7 8 17.5 15.5t23.5 7.5
h8q23 0 41 -23l137 -166l-25 -28l-157 87l-157 -87l-25 28z" />
    <glyph glyph-name="edieresis" unicode="&#xeb;" horiz-adv-x="486" 
d="M262 456q55 0 91 -10.5t58 -33.5t31 -60.5t9 -92.5q0 -17 -1 -29.5t-2 -20.5q-1 -10 -2 -15h-247q1 -34 4 -61.5t6 -47.5q4 -24 8 -42q3 -2 9 -3q5 -1 14.5 -1.5t24.5 -0.5q25 0 47.5 3.5t39.5 11.5t26.5 22.5t9.5 35.5h54q0 -42 -18.5 -66t-46 -36.5t-59.5 -15.5t-60 -3
q-61 0 -103.5 12.5t-69 40t-38.5 72t-12 108.5t10.5 108.5t36.5 72t69.5 40t110.5 12.5zM217 405q-5 -22 -9 -48q-3 -23 -6 -53.5t-3 -66.5h97q-2 42 -5 73.5t-7 52.5q-4 25 -9 42q-3 1 -7 3q-4 1 -9.5 2t-12.5 1t-12 -1t-9 -2q-4 -2 -8 -3zM71 597q0 38 16.5 56.5
t54.5 18.5q41 0 56 -18.5t15 -56.5t-16.5 -56t-54.5 -18t-54.5 18t-16.5 56zM276 597q0 38 16.5 56.5t54.5 18.5q41 0 56 -18.5t15 -56.5t-16.5 -56t-54.5 -18t-54.5 18t-16.5 56z" />
    <glyph glyph-name="igrave" unicode="&#xec;" horiz-adv-x="326" 
d="M30 441h59l158 24v-414h59v-51h-276v51h59v340h-59v50zM195 511l-27 -25l-166 112q-9 9 -13 19.5t-4 21.5q0 12 5.5 23t14 20t19.5 14.5t23 5.5q21 0 41 -18z" />
    <glyph glyph-name="iacute" unicode="&#xed;" horiz-adv-x="326" 
d="M30 441h59l158 24v-414h59v-51h-276v51h59v340h-59v50zM246 685q19 18 41 18q12 0 23 -5.5t19.5 -14.5t14 -20t5.5 -23q0 -11 -4 -21.5t-13 -19.5l-166 -112l-27 25z" />
    <glyph glyph-name="icircumflex" unicode="&#xee;" horiz-adv-x="326" 
d="M30 441h59l158 24v-414h59v-51h-276v51h59v340h-59v50zM120 685q19 18 40 18h5q21 0 41 -18l107 -173l-27 -25l-123 83l-123 -83l-27 25z" />
    <glyph glyph-name="idieresis" unicode="&#xef;" horiz-adv-x="326" 
d="M30 441h59l158 24v-414h59v-51h-276v51h59v340h-59v50zM6 597q0 38 16.5 56.5t54.5 18.5q41 0 56 -18.5t15 -56.5t-16.5 -56t-54.5 -18t-54.5 18t-16.5 56zM183 597q0 38 16.5 56.5t54.5 18.5q41 0 56 -18.5t15 -56.5t-16.5 -56t-54.5 -18t-54.5 18t-16.5 56z" />
    <glyph glyph-name="eth" unicode="&#xf0;" horiz-adv-x="536" 
d="M213 653q29 -15 56 -30t53 -32l120 62l33 -49l-102 -51q70 -61 99 -140.5t29 -189.5q0 -64 -12 -108.5t-40 -72t-72.5 -40t-108.5 -12.5q-65 0 -109 12.5t-72 40t-40 72t-12 108.5t12 108.5t40 72t72 40t109 12.5q75 0 129 -27q-14 27 -36 51t-48 42l-94 -47l-30 48
l70 36q-20 11 -39 22t-37 21zM199 223q0 -39 2.5 -72.5t6.5 -57.5q4 -29 9 -52q5 -2 13 -3q13 -3 38 -3q24 0 38 3q8 1 13 3q5 23 9 52q3 24 6 57.5t3 72.5t-3 72t-6 58q-4 28 -9 52q-6 1 -14 3q-7 1 -16.5 2t-20.5 1q-13 0 -22 -1t-16 -2q-8 -2 -13 -3q-5 -24 -9 -52
q-4 -25 -6.5 -58t-2.5 -72z" />
    <glyph glyph-name="ntilde" unicode="&#xf1;" horiz-adv-x="603" 
d="M30 431h59l151 29v-70q2 3 11 14t27 22.5t47 20.5t71 9q23 0 46.5 -4t43 -14.5t31.5 -28.5t12 -47v-311h59v-51h-217v394q-2 0 -6 1q-8 2 -22 2q-21 0 -37.5 -8.5t-28.5 -19.5t-19.5 -22.5t-10.5 -17.5v-278h59v-51h-276v51h59v330h-59v50zM195 557q10 41 30.5 57
t51.5 16q16 0 32 -5.5t31.5 -12t30.5 -12t29 -5.5q17 0 25.5 10.5t13.5 25.5l49 -21q-10 -41 -30.5 -57t-50.5 -16q-17 0 -33 5.5t-31.5 12t-30.5 12t-29 5.5q-17 0 -25.5 -10.5t-13.5 -25.5z" />
    <glyph glyph-name="ograve" unicode="&#xf2;" horiz-adv-x="536" 
d="M199 223q0 -39 2.5 -72.5t6.5 -57.5q4 -29 9 -52q5 -2 13 -3q13 -3 38 -3q24 0 38 3q8 1 13 3q5 23 9 52q3 24 6 57.5t3 72.5t-3 72t-6 58q-4 28 -9 52q-6 1 -14 3q-7 1 -16.5 2t-20.5 1q-13 0 -22 -1t-16 -2q-8 -2 -13 -3q-5 -24 -9 -52q-4 -25 -6.5 -58t-2.5 -72z
M35 223q0 64 12 108.5t40 72t72 40t109 12.5q64 0 108.5 -12.5t72.5 -40t40 -72t12 -108.5t-12 -108.5t-40 -72t-72.5 -40t-108.5 -12.5q-65 0 -109 12.5t-72 40t-40 72t-12 108.5zM295 514l-25 -28l-197 109q-21 18 -21 43q0 12 5.5 23.5t14 21t19.5 15t22 5.5q20 0 37 -14
z" />
    <glyph glyph-name="oacute" unicode="&#xf3;" horiz-adv-x="536" 
d="M199 223q0 -39 2.5 -72.5t6.5 -57.5q4 -29 9 -52q5 -2 13 -3q13 -3 38 -3q24 0 38 3q8 1 13 3q5 23 9 52q3 24 6 57.5t3 72.5t-3 72t-6 58q-4 28 -9 52q-6 1 -14 3q-7 1 -16.5 2t-20.5 1q-13 0 -22 -1t-16 -2q-8 -2 -13 -3q-5 -24 -9 -52q-4 -25 -6.5 -58t-2.5 -72z
M35 223q0 64 12 108.5t40 72t72 40t109 12.5q64 0 108.5 -12.5t72.5 -40t40 -72t12 -108.5t-12 -108.5t-40 -72t-72.5 -40t-108.5 -12.5q-65 0 -109 12.5t-72 40t-40 72t-12 108.5zM390 689q17 14 37 14q11 0 22 -5.5t19.5 -15t14 -21t5.5 -23.5q0 -25 -21 -43l-197 -109
l-25 28z" />
    <glyph glyph-name="ocircumflex" unicode="&#xf4;" horiz-adv-x="536" 
d="M199 223q0 -39 2.5 -72.5t6.5 -57.5q4 -29 9 -52q5 -2 13 -3q13 -3 38 -3q24 0 38 3q8 1 13 3q5 23 9 52q3 24 6 57.5t3 72.5t-3 72t-6 58q-4 28 -9 52q-6 1 -14 3q-7 1 -16.5 2t-20.5 1q-13 0 -22 -1t-16 -2q-8 -2 -13 -3q-5 -24 -9 -52q-4 -25 -6.5 -58t-2.5 -72z
M35 223q0 64 12 108.5t40 72t72 40t109 12.5q64 0 108.5 -12.5t72.5 -40t40 -72t12 -108.5t-12 -108.5t-40 -72t-72.5 -40t-108.5 -12.5q-65 0 -109 12.5t-72 40t-40 72t-12 108.5zM225 680q7 8 17.5 15.5t23.5 7.5h8q23 0 41 -23l137 -166l-25 -28l-157 87l-157 -87l-25 28
z" />
    <glyph glyph-name="otilde" unicode="&#xf5;" horiz-adv-x="536" 
d="M199 223q0 -39 2.5 -72.5t6.5 -57.5q4 -29 9 -52q5 -2 13 -3q13 -3 38 -3q24 0 38 3q8 1 13 3q5 23 9 52q3 24 6 57.5t3 72.5t-3 72t-6 58q-4 28 -9 52q-6 1 -14 3q-7 1 -16.5 2t-20.5 1q-13 0 -22 -1t-16 -2q-8 -2 -13 -3q-5 -24 -9 -52q-4 -25 -6.5 -58t-2.5 -72z
M35 223q0 64 12 108.5t40 72t72 40t109 12.5q64 0 108.5 -12.5t72.5 -40t40 -72t12 -108.5t-12 -108.5t-40 -72t-72.5 -40t-108.5 -12.5q-65 0 -109 12.5t-72 40t-40 72t-12 108.5zM122 557q10 41 30.5 57t51.5 16q16 0 32 -5.5t31.5 -12t30.5 -12t29 -5.5q17 0 25.5 10.5
t13.5 25.5l49 -21q-10 -41 -30.5 -57t-50.5 -16q-17 0 -33 5.5t-31.5 12t-30.5 12t-29 5.5q-17 0 -25.5 -10.5t-13.5 -25.5z" />
    <glyph glyph-name="odieresis" unicode="&#xf6;" horiz-adv-x="536" 
d="M199 223q0 -39 2.5 -72.5t6.5 -57.5q4 -29 9 -52q5 -2 13 -3q13 -3 38 -3q24 0 38 3q8 1 13 3q5 23 9 52q3 24 6 57.5t3 72.5t-3 72t-6 58q-4 28 -9 52q-6 1 -14 3q-7 1 -16.5 2t-20.5 1q-13 0 -22 -1t-16 -2q-8 -2 -13 -3q-5 -24 -9 -52q-4 -25 -6.5 -58t-2.5 -72z
M35 223q0 64 12 108.5t40 72t72 40t109 12.5q64 0 108.5 -12.5t72.5 -40t40 -72t12 -108.5t-12 -108.5t-40 -72t-72.5 -40t-108.5 -12.5q-65 0 -109 12.5t-72 40t-40 72t-12 108.5zM95 597q0 38 16.5 56.5t54.5 18.5q41 0 56 -18.5t15 -56.5t-16.5 -56t-54.5 -18t-54.5 18
t-16.5 56zM300 597q0 38 16.5 56.5t54.5 18.5q41 0 56 -18.5t15 -56.5t-16.5 -56t-54.5 -18t-54.5 18t-16.5 56z" />
    <glyph glyph-name="divide" unicode="&#xf7;" horiz-adv-x="472" 
d="M422 292v-58h-372v58h372zM194 112q0 23 9.5 33.5t32.5 10.5t32 -10.5t9 -33.5q0 -43 -41 -43q-23 0 -32.5 10t-9.5 33zM194 412q0 23 9.5 33.5t32.5 10.5t32 -10.5t9 -33.5q0 -43 -41 -43q-23 0 -32.5 10t-9.5 33z" />
    <glyph glyph-name="oslash" unicode="&#xf8;" horiz-adv-x="536" 
d="M401 435q54 -23 77 -73.5t23 -138.5q0 -64 -12 -108.5t-40 -72t-72.5 -40t-108.5 -12.5q-20 0 -38 1.5t-35 3.5l-13 -29h-68l21 45q-54 23 -77 73.5t-23 138.5q0 64 12 108.5t40 72t72 40t109 12.5q20 0 38 -1.5t34 -3.5l14 29h68zM319 41q5 23 9 52q3 24 6 57.5t3 72.5
v75l-121 -260q10 -1 24 -2t28 -1q24 0 38 3q8 1 13 3zM199 148l121 259q-11 2 -24.5 3t-27.5 1q-13 0 -22 -1t-16 -2q-8 -2 -13 -3q-5 -24 -9 -52q-4 -25 -6.5 -58t-2.5 -72v-75z" />
    <glyph glyph-name="ugrave" unicode="&#xf9;" horiz-adv-x="580" 
d="M15 431h59l151 29v-405q2 -1 6 -2t22 -1q21 0 37 8.5t28 19.5t20 22t11 17v330h158v-399h13q9 0 18 1l22 2v-48q-18 -3 -35 -5q-14 -2 -30 -3t-26 -1q-26 0 -45 5.5t-32.5 14.5t-22.5 20.5t-13 22.5q-2 -3 -11 -14t-27.5 -22.5t-47 -20.5t-70.5 -9q-23 0 -46.5 4
t-43 14.5t-31.5 28.5t-12 47v294h-52v50zM314 514l-25 -28l-197 109q-21 18 -21 43q0 12 5.5 23.5t14 21t19.5 15t22 5.5q20 0 37 -14z" />
    <glyph glyph-name="uacute" unicode="&#xfa;" horiz-adv-x="580" 
d="M15 431h59l151 29v-405q2 -1 6 -2t22 -1q21 0 37 8.5t28 19.5t20 22t11 17v330h158v-399h13q9 0 18 1l22 2v-48q-18 -3 -35 -5q-14 -2 -30 -3t-26 -1q-26 0 -45 5.5t-32.5 14.5t-22.5 20.5t-13 22.5q-2 -3 -11 -14t-27.5 -22.5t-47 -20.5t-70.5 -9q-23 0 -46.5 4
t-43 14.5t-31.5 28.5t-12 47v294h-52v50zM409 689q17 14 37 14q11 0 22 -5.5t19.5 -15t14 -21t5.5 -23.5q0 -25 -21 -43l-197 -109l-25 28z" />
    <glyph glyph-name="ucircumflex" unicode="&#xfb;" horiz-adv-x="580" 
d="M15 431h59l151 29v-405q2 -1 6 -2t22 -1q21 0 37 8.5t28 19.5t20 22t11 17v330h158v-399h13q9 0 18 1l22 2v-48q-18 -3 -35 -5q-14 -2 -30 -3t-26 -1q-26 0 -45 5.5t-32.5 14.5t-22.5 20.5t-13 22.5q-2 -3 -11 -14t-27.5 -22.5t-47 -20.5t-70.5 -9q-23 0 -46.5 4
t-43 14.5t-31.5 28.5t-12 47v294h-52v50zM244 680q7 8 17.5 15.5t23.5 7.5h8q23 0 41 -23l137 -166l-25 -28l-157 87l-157 -87l-25 28z" />
    <glyph glyph-name="udieresis" unicode="&#xfc;" horiz-adv-x="580" 
d="M15 431h59l151 29v-405q2 -1 6 -2t22 -1q21 0 37 8.5t28 19.5t20 22t11 17v330h158v-399h13q9 0 18 1l22 2v-48q-18 -3 -35 -5q-14 -2 -30 -3t-26 -1q-26 0 -45 5.5t-32.5 14.5t-22.5 20.5t-13 22.5q-2 -3 -11 -14t-27.5 -22.5t-47 -20.5t-70.5 -9q-23 0 -46.5 4
t-43 14.5t-31.5 28.5t-12 47v294h-52v50zM319 597q0 38 16.5 56.5t54.5 18.5q41 0 56 -18.5t15 -56.5t-16.5 -56t-54.5 -18t-54.5 18t-16.5 56zM114 597q0 38 16.5 56.5t54.5 18.5q41 0 56 -18.5t15 -56.5t-16.5 -56t-54.5 -18t-54.5 18t-16.5 56z" />
    <glyph glyph-name="yacute" unicode="&#xfd;" horiz-adv-x="531" 
d="M-15 449h209l115 -291l104 240h-80v51h208v-51h-70l-200 -468q-9 -22 -19.5 -39.5t-24 -30t-32 -19t-44.5 -6.5q-28 0 -44.5 9.5t-25.5 23t-11.5 28t-2.5 25.5v30h53v-31q0 -12 6.5 -23t24.5 -11q27 0 41.5 19t25.5 45l11 26l-194 422h-50v51zM412 689q17 14 37 14
q11 0 22 -5.5t19.5 -15t14 -21t5.5 -23.5q0 -25 -21 -43l-197 -109l-25 28z" />
    <glyph glyph-name="thorn" unicode="&#xfe;" horiz-adv-x="579" 
d="M25 615h59l158 29v-241q28 24 61.5 38t70.5 14q41 0 73 -12.5t53.5 -40t32.5 -72t11 -107.5q0 -64 -12 -108.5t-40 -72t-72.5 -39.5t-108.5 -12q-18 0 -35.5 2t-33.5 4v-162h-217v51h59v679h-59v50zM362 401q-33 0 -64.5 -21.5t-55.5 -53.5v-281q17 -5 35 -7t34 -2
q24 0 38 3q8 1 13 3q5 23 9 51q3 24 6 57.5t3 72.5q0 48 -3 81.5t-6 55.5q-4 26 -9 41z" />
    <glyph glyph-name="ydieresis" unicode="&#xff;" horiz-adv-x="531" 
d="M-15 449h209l115 -291l104 240h-80v51h208v-51h-70l-200 -468q-9 -22 -19.5 -39.5t-24 -30t-32 -19t-44.5 -6.5q-28 0 -44.5 9.5t-25.5 23t-11.5 28t-2.5 25.5v30h53v-31q0 -12 6.5 -23t24.5 -11q27 0 41.5 19t25.5 45l11 26l-194 422h-50v51zM117 597q0 38 16.5 56.5
t54.5 18.5q41 0 56 -18.5t15 -56.5t-16.5 -56t-54.5 -18t-54.5 18t-16.5 56zM322 597q0 38 16.5 56.5t54.5 18.5q41 0 56 -18.5t15 -56.5t-16.5 -56t-54.5 -18t-54.5 18t-16.5 56z" />
    <glyph glyph-name="dotlessi" unicode="&#x131;" horiz-adv-x="326" 
d="M30 441h59l158 24v-414h59v-51h-276v51h59v340h-59v50z" />
    <glyph glyph-name="OE" unicode="&#x152;" horiz-adv-x="900" 
d="M835 615v-204q-50 0 -82.5 16t-53 39t-30.5 48t-14 43h-90v-222h175v-58h-175v-219h105q4 18 14 43t30 48t53 39.5t83 16.5v-205h-506q-78 0 -134.5 16.5t-93 53.5t-54 95.5t-17.5 141.5t17.5 141.5t54 95.5t93 54t134.5 17h491zM344 52q32 0 53 3v504q-11 1 -23.5 2
t-29.5 1q-20 0 -35 -1.5t-26 -3.5q-12 -2 -22 -4q-9 -32 -15 -72q-5 -34 -9.5 -78.5t-4.5 -95.5q0 -54 4.5 -98.5t9.5 -77.5q6 -39 15 -70q10 -3 22 -5q11 -2 26 -3t35 -1z" />
    <glyph glyph-name="oe" unicode="&#x153;" horiz-adv-x="781" 
d="M557 456q55 0 91 -10.5t58 -33.5t31 -60.5t9 -92.5q0 -17 -1 -29.5t-2 -20.5q-1 -10 -2 -15h-247q1 -34 4 -61.5t6 -47.5q4 -24 8 -42q3 -2 9 -3q5 -1 14.5 -1.5t24.5 -0.5q25 0 47.5 3.5t39.5 11.5t26.5 22.5t9.5 35.5h54q0 -42 -18.5 -66t-46 -36.5t-59.5 -15.5t-60 -3
q-88 0 -140 41q-54 -41 -145 -41q-65 0 -109 12.5t-72 40t-40 72t-12 108.5t12 108.5t40 72t72 40t109 12.5q88 0 144 -42q52 42 145 42zM199 223q0 -39 2.5 -72.5t6.5 -57.5q4 -29 9 -52q5 -2 13 -3q13 -3 38 -3q24 0 38 3q8 1 13 3q5 23 9 52q3 24 6 57.5t3 72.5t-3 72
t-6 58q-4 28 -9 52q-6 1 -14 3q-7 1 -16.5 2t-20.5 1q-13 0 -22 -1t-16 -2q-8 -2 -13 -3q-5 -24 -9 -52q-4 -25 -6.5 -58t-2.5 -72zM512 405q-5 -22 -9 -48q-3 -23 -6 -53.5t-3 -66.5h97q-2 42 -5 73.5t-7 52.5q-4 25 -9 42q-3 1 -7 3q-4 1 -9.5 2t-12.5 1t-12 -1t-9 -2
q-4 -2 -8 -3z" />
    <glyph glyph-name="Ydieresis" unicode="&#x178;" horiz-adv-x="598" 
d="M15 615h182l156 -283l100 225h-102v58h237v-58h-74l-135 -300v-199h89v-58h-346v58h89v195l-196 341v21zM125 763q0 38 16.5 56.5t54.5 18.5q41 0 56 -18.5t15 -56.5t-16.5 -56t-54.5 -18t-54.5 18t-16.5 56zM330 763q0 38 16.5 56.5t54.5 18.5q41 0 56 -18.5t15 -56.5
t-16.5 -56t-54.5 -18t-54.5 18t-16.5 56z" />
    <glyph glyph-name="apostrophe" unicode="&#x2bc;" horiz-adv-x="266" 
d="M50 543q0 45 19 66t64 21q48 0 65.5 -21t17.5 -66q0 -54 -3 -89.5t-16.5 -57.5t-42 -31t-80.5 -9v48h8q42 0 60 11t20 45q-14 -3 -29 -3q-45 0 -64 20.5t-19 65.5z" />
    <glyph glyph-name="circumflex" unicode="&#x2c6;" 
d="M215 680q7 8 17.5 15.5t23.5 7.5h8q23 0 41 -23l137 -166l-25 -28l-157 87l-157 -87l-25 28z" />
    <glyph glyph-name="ring" unicode="&#x2da;" 
d="M149 600q0 49 30.5 79.5t80.5 30.5q52 0 81.5 -29t29.5 -81q0 -49 -30.5 -79.5t-80.5 -30.5q-52 0 -81.5 29.5t-29.5 80.5zM209 601q0 -29 13.5 -44t37.5 -15q23 0 37 15.5t14 43.5q0 57 -51 57q-23 0 -37 -15t-14 -42z" />
    <glyph glyph-name="tilde" unicode="&#x2dc;" 
d="M113 557q10 41 30.5 57t51.5 16q16 0 32 -5.5t31.5 -12t30.5 -12t29 -5.5q17 0 25.5 10.5t13.5 25.5l49 -21q-10 -41 -30.5 -57t-50.5 -16q-17 0 -33 5.5t-31.5 12t-30.5 12t-29 5.5q-17 0 -25.5 -10.5t-13.5 -25.5z" />
    <glyph glyph-name="endash" unicode="&#x2013;" horiz-adv-x="440" 
d="M440 322v-58h-440v58h440z" />
    <glyph glyph-name="emdash" unicode="&#x2014;" horiz-adv-x="692" 
d="M692 322v-58h-692v58h692z" />
    <glyph glyph-name="quoteleft" unicode="&#x2018;" horiz-adv-x="266" 
d="M216 442q0 -45 -19 -66t-64 -21q-48 0 -65.5 21t-17.5 66q0 54 3 89.5t16.5 57.5t42 31t80.5 9v-48h-8q-42 0 -60.5 -11t-19.5 -45q12 3 29 3q45 0 64 -20.5t19 -65.5z" />
    <glyph glyph-name="quoteright" unicode="&#x2019;" horiz-adv-x="266" 
d="M50 542q0 45 19 66t64 21q48 0 65.5 -21t17.5 -66q0 -54 -3 -89.5t-16.5 -57.5t-42 -31t-80.5 -9v48h8q42 0 60 11t20 45q-14 -3 -29 -3q-45 0 -64 20.5t-19 65.5z" />
    <glyph glyph-name="quotesinglbase" unicode="&#x201a;" horiz-adv-x="266" 
d="M50 62q0 45 19 66t64 21q48 0 65.5 -21t17.5 -66q0 -54 -3 -89.5t-16.5 -57.5t-42 -31t-80.5 -9v48h8q42 0 60 11t20 45q-14 -3 -29 -3q-45 0 -64 20.5t-19 65.5z" />
    <glyph glyph-name="quotedblleft" unicode="&#x201c;" horiz-adv-x="466" 
d="M416 442q0 -45 -19 -66t-64 -21q-48 0 -65.5 21t-17.5 66v8q0 51 3 85.5t17 55t42.5 29.5t79.5 9v-48h-8q-42 0 -60.5 -11t-19.5 -45q12 3 29 3q45 0 64 -20.5t19 -65.5zM216 442q0 -45 -19 -66t-64 -21q-48 0 -65.5 21t-17.5 66q0 54 3 89.5t16.5 57.5t42 31t80.5 9v-48
h-8q-42 0 -60.5 -11t-19.5 -45q12 3 29 3q45 0 64 -20.5t19 -65.5z" />
    <glyph glyph-name="quotedblright" unicode="&#x201d;" horiz-adv-x="466" 
d="M50 542q0 45 19 66t64 21q48 0 65.5 -21t17.5 -66q0 -54 -3 -89.5t-16.5 -57.5t-42 -31t-80.5 -9v48h8q42 0 60 11t20 45q-14 -3 -29 -3q-45 0 -64 20.5t-19 65.5zM250 542q0 45 19 66t64 21q48 0 65.5 -21t17.5 -66q0 -54 -3 -89.5t-16.5 -57.5t-42 -31t-80.5 -9v48h8
q42 0 60 11t20 45q-14 -3 -29 -3q-45 0 -64 20.5t-19 65.5z" />
    <glyph glyph-name="quotedblbase" unicode="&#x201e;" horiz-adv-x="466" 
d="M50 62q0 45 19 66t64 21q48 0 65.5 -21t17.5 -66q0 -54 -3 -89.5t-16.5 -57.5t-42 -31t-80.5 -9v48h8q42 0 60 11t20 45q-14 -3 -29 -3q-45 0 -64 20.5t-19 65.5zM250 62q0 45 19 66t64 21q48 0 65.5 -21t17.5 -66q0 -54 -3 -89.5t-16.5 -57.5t-42 -31t-80.5 -9v48h8
q42 0 60 11t20 45q-14 -3 -29 -3q-45 0 -64 20.5t-19 65.5z" />
    <glyph glyph-name="bullet" unicode="&#x2022;" horiz-adv-x="376" 
d="M80 299q0 58 24.5 85.5t83.5 27.5q62 0 85 -27.5t23 -85.5q0 -59 -25 -85.5t-83 -26.5q-59 0 -83.5 26.5t-24.5 85.5z" />
    <glyph glyph-name="guilsinglleft" unicode="&#x2039;" horiz-adv-x="338" 
d="M84 196q-10 8 -17 19t-7 28v5q1 13 10 24.5t25 25.5l164 137l29 -27l-91 -165l91 -165l-29 -26z" />
    <glyph glyph-name="guilsinglright" unicode="&#x203a;" horiz-adv-x="338" 
d="M79 52l-29 26l91 165l-91 165l29 27l164 -137q16 -14 25 -25.5t10 -24.5v-5q0 -17 -7 -28t-17 -19z" />
    <glyph glyph-name="fraction" unicode="&#x2044;" horiz-adv-x="346" 
d="M66 0h-66l280 577h66z" />
    <glyph glyph-name="uni2074" unicode="&#x2074;" horiz-adv-x="346" 
d="M25 454l114 164l126 12v-148h61v-45h-61v-33h61v-47h-248v47h61v33h-114v17zM140 482l12 84l-52 -84h40z" />
    <glyph glyph-name="Euro" unicode="&#x20ac;" horiz-adv-x="629" 
d="M568 367q-62 0 -98 24t-54.5 54t-24.5 57t-6 34q-14 -1 -25.5 -2t-19.5 -3q-10 -2 -17 -4q-6 -19 -11 -44q-5 -21 -9 -51t-7 -67h173l-8 -58h-167v-42h160l-8 -58h-149q2 -38 6.5 -68t9.5 -51q5 -25 10 -44q6 -2 15 -4q15 -3 42 -3q33 0 60.5 7.5t47.5 24t31.5 43
t11.5 63.5v31h58v-28q0 -51 -17 -87.5t-46 -60t-66.5 -34.5t-79.5 -11q-59 0 -105.5 12t-80 38.5t-54 68.5t-28.5 103h-72l8 58h59v42h-53l8 58h49q8 61 29 103t56.5 68.5t85 38t114.5 11.5q34 0 65 -2.5t55 -5.5q28 -4 52 -7v-204z" />
    <glyph glyph-name="minus" unicode="&#x2212;" horiz-adv-x="442" 
d="M392 292v-58h-342v58h342z" />
    <glyph glyph-name="uni2215" unicode="&#x2215;" horiz-adv-x="328" 
d="M68 -46h-68l260 690h68z" />
    </font>
</defs>
</svg>
