<svg xmlns="http://www.w3.org/2000/svg" fill="none" viewBox="0 0 123 96" preserveAspectRatio="none"><path fill="#FFF705" d="M123 16.643c0 2.834-2.618 5.503-7.235 7.839 4.617 2.336 7.235 5.004 7.235 7.839 0 2.834-2.618 5.504-7.236 7.84C120.382 42.495 123 45.165 123 48c0 2.834-2.618 5.503-7.235 7.84 4.617 2.335 7.235 5.004 7.235 7.838 0 2.834-2.618 5.504-7.235 7.84 4.617 2.335 7.235 5.004 7.235 7.839C123 88.549 95.466 96 61.5 96S0 88.549 0 79.357c0-2.835 2.618-5.504 7.237-7.84C2.618 69.182 0 66.512 0 63.678c0-2.834 2.618-5.503 7.235-7.839C2.619 53.503 0 50.834 0 48c0-2.834 2.619-5.504 7.237-7.84C2.619 37.825 0 35.155 0 32.32c0-2.834 2.618-5.502 7.235-7.838C2.619 22.146 0 19.477 0 16.643 0 7.451 27.534 0 61.5 0S123 7.45 123 16.643Z"/></svg>