<svg xmlns="http://www.w3.org/2000/svg" width="930" height="909.001" viewBox="0 0 930 909.001" preserveAspectRatio="none"><path d="M930.237,909.014H.238V870.428A1490.171,1490.171,0,0,0,161.969,897.57,1685.958,1685.958,0,0,0,350.356,908c154.562,0,299.872-17.544,409.164-49.4a612.684,612.684,0,0,0,70.657-24.961c20.9-9.016,38.848-18.655,53.35-28.649C913.7,784.2,929,762.111,929,739.342c0-14.089-5.971-28.091-17.746-41.617-11.432-13.133-28.366-25.86-50.331-37.829,21.962-11.964,38.9-24.69,50.331-37.825C923.029,608.544,929,594.543,929,580.455s-5.97-28.088-17.745-41.613c-11.433-13.132-28.365-25.858-50.327-37.823,21.961-11.968,38.894-24.694,50.327-37.828C923.03,449.666,929,435.665,929,421.578s-5.971-28.088-17.748-41.616c-11.435-13.134-28.369-25.862-50.334-37.83,21.964-11.966,38.9-24.692,50.334-37.827C923.029,290.778,929,276.776,929,262.687s-5.97-28.088-17.745-41.613c-11.432-13.132-28.365-25.858-50.327-37.824,21.961-11.965,38.894-24.69,50.327-37.823C923.03,131.9,929,117.9,929,103.814,929,84.671,918.083,65.892,896.552,48c-20.82-17.3-51.129-33.448-90.087-47.985H930.237v909Z" transform="translate(-0.238 -0.013)" fill="#9fb7de"/></svg>